<?xml version="1.0" encoding="UTF-8" standalone="no"?>
<!-- Created with Inkscape (http://www.inkscape.org/) -->
<svg xmlns:dc="http://purl.org/dc/elements/1.1/" xmlns:cc="http://creativecommons.org/ns#" xmlns:rdf="http://www.w3.org/1999/02/22-rdf-syntax-ns#" xmlns:svg="http://www.w3.org/2000/svg" xmlns="http://www.w3.org/2000/svg" xmlns:sodipodi="http://sodipodi.sourceforge.net/DTD/sodipodi-0.dtd" xmlns:inkscape="http://www.inkscape.org/namespaces/inkscape" width="355" height="71.199997" viewBox="0 0 355 71.199998" id="svg36952" version="1.1" inkscape:version="0.91 r13725" sodipodi:docname="accor hotels.svg">
  <defs id="defs36954">
    <clipPath id="clipPath36976" clipPathUnits="userSpaceOnUse">
      <path inkscape:connector-curvature="0" id="path36978" d="m 0,0 1077.165,0 0,708.661 L 0,708.661 0,0 Z"/>
    </clipPath>
    <clipPath id="clipPath37134" clipPathUnits="userSpaceOnUse">
      <path inkscape:connector-curvature="0" id="path37136" d="m 195.591,198.425 147.401,0 0,124.725 -147.401,0 0,-124.725 z"/>
    </clipPath>
    <clipPath id="clipPath37148" clipPathUnits="userSpaceOnUse">
      <path inkscape:connector-curvature="0" id="path37150" d="m 39.686,198.425 147.401,0 0,124.726 -147.401,0 0,-124.726 z"/>
    </clipPath>
    <clipPath id="clipPath37162" clipPathUnits="userSpaceOnUse">
      <path inkscape:connector-curvature="0" id="path37164" d="m 351.496,198.425 147.402,0 0,263.624 -147.402,0 0,-263.624 z"/>
    </clipPath>
    <clipPath id="clipPath37176" clipPathUnits="userSpaceOnUse">
      <path inkscape:connector-curvature="0" id="path37178" d="m 578.268,337.323 147.401,0 0,124.725 -147.401,0 0,-124.725 z"/>
    </clipPath>
    <clipPath id="clipPath37194" clipPathUnits="userSpaceOnUse">
      <path inkscape:connector-curvature="0" id="path37196" d="m 309.164,335.959 33.827,0 0,32.475 -33.827,0 0,-32.475 z"/>
    </clipPath>
    <clipPath id="clipPath37290" clipPathUnits="userSpaceOnUse">
      <path inkscape:connector-curvature="0" id="path37292" d="m 309.164,335.959 33.827,0 0,32.475 -33.827,0 0,-32.475 z"/>
    </clipPath>
    <clipPath id="clipPath37350" clipPathUnits="userSpaceOnUse">
      <path inkscape:connector-curvature="0" id="path37352" d="m 309.164,335.959 31.324,0 0,32.475 -31.324,0 0,-32.475 z"/>
    </clipPath>
    <clipPath id="clipPath37378" clipPathUnits="userSpaceOnUse">
      <path inkscape:connector-curvature="0" id="path37380" d="m 309.164,335.959 33.827,0 0,32.475 -33.827,0 0,-32.475 z"/>
    </clipPath>
    <clipPath id="clipPath37390" clipPathUnits="userSpaceOnUse">
      <path inkscape:connector-curvature="0" id="path37392" d="m 309.164,335.959 31.324,0 0,32.475 -31.324,0 0,-32.475 z"/>
    </clipPath>
    <clipPath id="clipPath37410" clipPathUnits="userSpaceOnUse">
      <path inkscape:connector-curvature="0" id="path37412" d="m 309.164,335.959 33.827,0 0,32.475 -33.827,0 0,-32.475 z"/>
    </clipPath>
    <clipPath id="clipPath37662" clipPathUnits="userSpaceOnUse">
      <path inkscape:connector-curvature="0" id="path37664" d="m 117.64,335.856 69.447,0 0,27.688 -69.447,0 0,-27.688 z"/>
    </clipPath>
    <clipPath id="clipPath37674" clipPathUnits="userSpaceOnUse">
      <path inkscape:connector-curvature="0" id="path37676" d="m 117.638,335.856 69.449,0 0,27.688 -69.449,0 0,-27.688 z"/>
    </clipPath>
    <clipPath id="clipPath37730" clipPathUnits="userSpaceOnUse">
      <path inkscape:connector-curvature="0" id="path37732" d="m 117.64,335.856 69.447,0 0,27.688 -69.447,0 0,-27.688 z"/>
    </clipPath>
    <clipPath id="clipPath37746" clipPathUnits="userSpaceOnUse">
      <path inkscape:connector-curvature="0" id="path37748" d="m 117.638,335.856 69.449,0 0,27.688 -69.449,0 0,-27.688 z"/>
    </clipPath>
    <clipPath id="clipPath37890" clipPathUnits="userSpaceOnUse">
      <path inkscape:connector-curvature="0" id="path37892" d="m 140.368,59.765 46.719,0 0,24.322 -46.719,0 0,-24.322 z"/>
    </clipPath>
    <clipPath id="clipPath37902" clipPathUnits="userSpaceOnUse">
      <path inkscape:connector-curvature="0" id="path37904" d="m 276.611,59.528 66.38,0 0,12.806 -66.38,0 0,-12.806 z"/>
    </clipPath>
    <clipPath id="clipPath37914" clipPathUnits="userSpaceOnUse">
      <path inkscape:connector-curvature="0" id="path37916" d="m 661.69,210.691 10e-4,-12.252 63.978,0 0,12.252 -63.979,0 z"/>
    </clipPath>
    <clipPath id="clipPath37930" clipPathUnits="userSpaceOnUse">
      <path inkscape:connector-curvature="0" id="path37932" d="m 666.425,57.118 59.244,0 0,17.626 -59.244,0 0,-17.626 z"/>
    </clipPath>
    <clipPath id="clipPath37978" clipPathUnits="userSpaceOnUse">
      <path inkscape:connector-curvature="0" id="path37980" d="m 873.062,356.41 c -0.794,-0.038 -1.493,-0.18 -1.876,-0.615 l 0,0 c -0.382,-0.434 -0.471,-1.127 -0.472,-1.907 l 0,0 c 0,-0.012 0,-0.024 0,-0.037 l 0,0 c 10e-4,-0.306 0,-0.601 0.057,-0.858 l 0,0 c 0.014,-0.063 0.017,-0.123 0.017,-0.181 l 0,0 c -10e-4,-0.07 -0.007,-0.139 -0.007,-0.209 l 0,0 c 0,-0.059 0.004,-0.119 0.018,-0.182 l 0,0 c 0.104,-0.446 0.042,-0.981 0.144,-1.429 l 0,0 c 0.01,-0.191 0.018,-0.382 0.028,-0.573 l 0,0 c 0.081,-0.344 0.035,-0.768 0.115,-1.115 l 0,0 0,-0.214 c 0.053,-0.228 0.033,-0.532 0.085,-0.758 l 0,0 0,-0.243 c 0.053,-0.227 0.033,-0.532 0.087,-0.757 l 0,0 0,-0.243 c 0.027,-0.123 0.028,-0.321 0.056,-0.444 l 0,0 0,-0.229 c 0.03,-0.128 0.028,-0.326 0.058,-0.457 l 0,0 0,-0.215 c 0.129,-0.55 0.046,-1.207 0.171,-1.759 l 0,0 c 0.013,-0.056 0.017,-0.11 0.017,-0.162 l 0,0 c 0.001,-0.077 -0.007,-0.151 -0.007,-0.227 l 0,0 c 0,-0.059 0.004,-0.119 0.019,-0.182 l 0,0 c 0.118,-0.503 0.046,-1.228 0.172,-1.773 l 0,0 c 0.027,-0.118 0.007,-0.249 0.027,-0.343 l 0,0 0,-0.214 c 0.029,-0.123 0.03,-0.321 0.058,-0.444 l 0,0 0.015,-0.229 0,-0.028 1.686,0 0,7.534 0,2.259 c 0,0.154 -0.019,0.424 -0.019,0.656 l 0,0 c 0,0.149 0.008,0.282 0.033,0.36 l 0,0 c 0.311,-0.046 0.657,-0.124 0.972,-0.143 l 0,0 c 0.008,0.159 0.052,0.322 0.087,0.457 l 0,0 c 0.055,0.217 0.063,0.43 0.114,0.629 l 0,0 c 0.092,0.359 0.078,0.731 0.186,1.073 l 0,0 -0.014,0.014 -0.915,0 c -0.127,0 -0.3,-0.019 -0.415,0.006 l 0,0 c -0.01,0.002 -0.02,0.005 -0.029,0.008 l 0,0 c -10e-4,0.074 -0.003,0.154 -0.003,0.233 l 0,0 c 0,0.131 0.007,0.258 0.046,0.353 l 0,0 c 0.091,0.223 0.299,0.365 0.57,0.436 l 0,0 c 0.186,0.049 0.402,0.065 0.631,0.05 l 0,0 c 0.077,-0.004 0.131,-0.027 0.229,-0.028 l 0,0 c 0.004,0.374 0.013,0.705 0.086,0.999 l 0,0 0,0.144 c 0.069,0.281 0.115,0.601 0.114,0.94 l 0,0 c 0,0.011 0,0.022 0,0.033 l 0,0 c -0.268,0 -0.548,0.007 -0.829,0.014 l 0,0 -1.312,0 z m -4.695,0 c -0.765,-0.036 -1.446,-0.167 -1.828,-0.557 l 0,0 c -0.327,-0.334 -0.532,-0.953 -0.529,-1.616 l 0,0 c 0,-0.094 0.005,-0.19 0.014,-0.286 l 0,0 0,-0.301 0,-0.285 c 0.056,-0.236 0.033,-0.54 0.086,-0.772 l 0,0 0,-0.229 c 0.03,-0.127 0.028,-0.329 0.057,-0.458 l 0,0 0,-0.228 c 0.048,-0.199 0.032,-0.534 0.086,-0.773 l 0,0 0,-0.214 c 0.029,-0.121 0.029,-0.32 0.057,-0.443 l 0,0 0,-0.229 c 0.023,-0.094 0,-0.226 0.029,-0.343 l 0,0 c 0.132,-0.546 0.046,-1.22 0.171,-1.773 l 0,0 0,-0.214 c 0.03,-0.125 0.03,-0.321 0.058,-0.444 l 0,0 0,-0.228 c 0.03,-0.13 0.028,-0.328 0.055,-0.458 l 0,0 0,-0.214 c 0.132,-0.543 0.046,-1.215 0.173,-1.758 l 0,0 c 0.01,-0.191 0.019,-0.382 0.029,-0.573 l 0,0 c 0.082,-0.343 0.035,-0.771 0.113,-1.115 l 0,0 0,-0.228 c 0.057,-0.232 0.035,-0.54 0.087,-0.773 l 0,0 0,-0.228 c 0.029,-0.12 0.03,-0.311 0.058,-0.43 l 0,0 0,-0.228 c 0.04,-0.171 0.057,-0.391 0.056,-0.59 l 0,0 c 0,-0.013 0,-0.026 0,-0.039 l 0,0 1.702,0 0,7.534 0,2.259 c 0,0.154 -0.019,0.424 -0.019,0.656 l 0,0 c 0,0.149 0.008,0.282 0.033,0.36 l 0,0 c 0.213,-0.03 0.489,-0.057 0.686,-0.115 l 0,0 0.106,-0.009 0.109,-0.019 0.057,0.014 c 0.068,0.104 0.059,0.436 0.1,0.586 l 0,0 c 0.04,0.153 0.075,0.362 0.114,0.515 l 0,0 c 0.01,0.095 0.02,0.19 0.029,0.286 l 0,0 c 0.061,0.224 0.144,0.516 0.143,0.772 l 0,0 -0.915,0 c -0.137,0 -0.331,-0.022 -0.443,0.014 l 0,0 c 0,0.018 0,0.037 0,0.055 l 0,0 c 10e-4,0.565 0.129,0.82 0.557,0.961 l 0,0 c 0.092,0.029 0.154,0.002 0.258,0.028 l 0,0 c 0.073,0.018 0.195,0.036 0.309,0.036 l 0,0 c 0.008,0 0.015,0 0.022,0 l 0,0 c 0.034,0 0.067,-0.003 0.098,-0.008 l 0,0 0.214,-0.028 c 10e-4,0.38 0.021,0.747 0.1,1.058 l 0,0 c 0.012,0.046 0.014,0.088 0.014,0.129 l 0,0 c 0,0.018 0,0.037 0,0.056 l 0,0 c 0,0.041 0.002,0.082 0.015,0.129 l 0,0 c 0.059,0.219 0.086,0.455 0.086,0.696 l 0,0 c 0,0.016 0,0.032 -10e-4,0.048 l 0,0 c -0.267,0 -0.55,0.007 -0.837,0.014 l 0,0 -1.309,0 z m -18.927,-0.014 c 0.039,-0.776 0.156,-1.57 0.156,-2.359 l 0,0 0.015,-0.015 c 0.715,-10e-4 1.407,-0.038 2.127,-0.052 l 0,0 c 0.166,-0.003 0.333,-0.005 0.503,-0.005 l 0,0 c 0.014,0 0.029,0 0.044,0 l 0,0 c -0.015,0.81 -0.029,1.62 -0.043,2.431 l 0,0 -2.802,0 z m 12.138,-2.889 -0.124,-0.014 -0.119,-0.014 c -0.427,-0.14 -0.838,-0.268 -1.158,-0.514 l 0,0 c -0.136,-0.107 -0.287,-0.243 -0.401,-0.372 l 0,0 -0.157,-0.201 c 0.003,-0.309 0.048,-0.619 0.114,-0.886 l 0,0 c 0.064,-0.254 0.025,-0.532 0.087,-0.786 l 0,0 c 0.053,-0.22 0.061,-0.496 0.114,-0.715 l 0,0 0,-0.157 c 0.033,-0.133 0.063,-0.303 0.071,-0.458 l 0,0 0.029,-0.015 1.258,0 c 0.008,0 0.016,0 0.025,-10e-4 l 0,0 c 0.177,-0.002 0.418,-0.031 0.561,0.016 l 0,0 c -0.001,0.546 -0.106,1.143 -0.104,1.714 l 0,0 c 10e-4,0.24 0.021,0.476 0.076,0.701 l 0,0 c 0.073,0.304 0.105,0.663 0.385,0.745 l 0,0 c 0.018,0.012 0.036,0.021 0.054,0.028 l 0,0 c 0.034,0.014 0.067,0.02 0.1,0.02 l 0,0 c 0.161,0 0.303,-0.146 0.375,-0.234 l 0,0 c 0.23,-0.277 0.243,-0.8 0.243,-1.301 l 0,0 c 0,-0.061 0.002,-0.128 0.002,-0.195 l 0,0 c 0,-0.085 -0.002,-0.169 -0.016,-0.234 l 0,0 0,-0.501 c -0.24,-1.046 -0.807,-1.519 -1.571,-2.029 l 0,0 -0.244,-0.114 c -0.259,-0.17 -0.54,-0.268 -0.845,-0.401 l 0,0 c -0.068,-0.032 -0.129,-0.078 -0.228,-0.086 l 0,0 -0.014,-0.014 c 0.008,-0.209 0.047,-0.507 0.1,-0.73 l 0,0 0,-0.143 c 0.069,-0.283 0.072,-0.634 0.142,-0.914 l 0,0 c 0.013,-0.051 0.016,-0.097 0.016,-0.142 l 0,0 c -0.001,-0.03 -0.002,-0.06 -0.002,-0.089 l 0,0 c 0,-0.045 0.002,-0.091 0.015,-0.141 l 0,0 c 0.074,-0.284 0.073,-0.635 0.143,-0.915 l 0,0 c 0.013,-0.051 0.016,-0.097 0.016,-0.142 l 0,0 c 0,-0.03 -0.002,-0.059 -0.002,-0.089 l 0,0 c 0,-0.045 0.003,-0.09 0.015,-0.141 l 0,0 c 0.122,-0.499 0.108,-1.074 0.229,-1.572 l 0,0 c 0.012,-0.05 0.014,-0.094 0.014,-0.136 l 0,0 c 0,-0.025 0,-0.05 -0.001,-0.075 l 0,0 c 0,-0.046 0.003,-0.094 0.016,-0.148 l 0,0 c 0.055,-0.222 0.06,-0.503 0.114,-0.729 l 0,0 0,-0.128 c 0.056,-0.223 0.113,-0.568 0.114,-0.815 l 0,0 0.257,-0.057 c 0.006,-0.002 0.012,-0.003 0.018,-0.004 l 0,0 c 0.016,-0.003 0.033,-0.004 0.051,-0.004 l 0,0 c 0.095,0 0.214,0.036 0.311,0.074 l 0,0 c 0.073,0.028 0.133,0.058 0.164,0.077 l 0,0 0.229,0.114 c 0.154,0.134 0.307,0.293 0.429,0.457 l 0,0 0,0.044 0.086,0.085 0,0.043 c 0.113,0.163 0.287,0.398 0.314,0.629 l 0,0 0.114,0 c 0.072,-0.428 0.143,-0.856 0.215,-1.287 l 0,0 c 0.489,-0.012 0.946,-0.184 1.444,-0.185 l 0,0 c 0,0.264 0.032,0.548 0.086,0.786 l 0,0 c 0.059,0.261 0.03,0.532 0.085,0.772 l 0,0 0,0.172 c 0.066,0.271 0.059,0.653 0.115,0.886 l 0,0 c 0.013,0.053 0.015,0.102 0.015,0.15 l 0,0 c 0,0.044 -0.002,0.086 -0.002,0.13 l 0,0 c 0,0.048 0.003,0.096 0.016,0.149 l 0,0 c 0.127,0.522 0.084,1.19 0.198,1.673 l 0,0 0,0.186 c 0.039,0.156 0.018,0.343 0.059,0.515 l 0,0 c 0.038,0.155 0.015,0.342 0.057,0.515 l 0,0 c 0.128,0.529 0.076,1.143 0.2,1.672 l 0,0 0,0.186 c 0.023,0.092 0.035,0.25 0.057,0.343 l 0,0 0,0.2 c 0.13,0.52 0.077,1.133 0.201,1.658 l 0,0 c 0.012,0.053 0.015,0.102 0.015,0.15 l 0,0 c -10e-4,0.044 -0.003,0.086 -0.003,0.129 l 0,0 c 0,0.048 0.003,0.097 0.016,0.151 l 0,0 c 0.054,0.219 0.072,0.485 0.086,0.729 l 0,0 0.028,0.243 c -0.035,0.114 -0.131,0.254 -0.2,0.343 l 0,0 -0.114,0.2 -0.1,0.071 0,0.044 c -0.337,0.406 -0.936,0.676 -1.473,0.886 l 0,0 c -0.223,0.087 -0.499,0.102 -0.729,0.171 l 0,0 -0.171,0 c -0.161,0.05 -0.395,0.07 -0.638,0.07 l 0,0 c -0.33,0 -0.676,-0.038 -0.878,-0.099 m 0.357,-6.719 c 0.065,0.284 0.129,0.576 0.287,0.772 l 0,0 0.028,0 0.086,0.143 0.057,0.029 0.114,0.171 0.114,0.087 0.114,0.17 c 0.093,0.107 0.212,0.191 0.287,0.315 l 0,0 c 0.018,-0.029 0.023,-0.083 0.023,-0.142 l 0,0 c 0,-0.076 -0.009,-0.161 -0.009,-0.216 l 0,0 0,-0.914 c -10e-4,-1.036 -0.014,-2.13 -0.014,-3.189 l 0,0 c 0,-0.493 -0.043,-0.793 -0.386,-0.943 l 0,0 -0.175,-0.059 -0.011,10e-4 c -0.404,0.061 -0.473,0.464 -0.572,0.83 l 0,0 0,0.142 c -0.041,0.175 -0.067,0.445 -0.067,0.701 l 0,0 c 0,0.175 0.012,0.344 0.039,0.472 l 0,0 c 0.013,0.065 0.016,0.133 0.016,0.201 l 0,0 c 10e-4,0.05 -10e-4,0.101 -10e-4,0.149 l 0,0 c 0,0.059 0.002,0.115 0.013,0.165 l 0,0 0,0.243 c 0.029,0.134 0.029,0.339 0.057,0.471 l 0,0 0,0.401 z m 16.056,6.691 -0.182,-0.012 -0.189,-0.016 c -0.364,-0.112 -0.745,-0.163 -1.073,-0.315 l 0,0 c -0.58,-0.269 -1.222,-0.62 -1.458,-1.23 l 0,0 c -0.054,-0.14 -0.066,-0.332 -0.066,-0.534 l 0,0 c 0,-0.167 0.008,-0.34 0.008,-0.495 l 0,0 c 0.001,-0.27 0.004,-0.643 0.058,-0.886 l 0,0 0,-0.301 c 0.031,-0.132 0.028,-0.341 0.057,-0.471 l 0,0 c 0.013,-0.06 0.017,-0.117 0.017,-0.173 l 0,0 c -10e-4,-0.068 -0.007,-0.133 -0.007,-0.2 l 0,0 c 0,-0.055 0.004,-0.112 0.018,-0.171 l 0,0 c 0.047,-0.197 0.042,-0.459 0.087,-0.659 l 0,0 0,-0.171 c 0.161,-0.675 0.124,-1.475 0.285,-2.143 l 0,0 c 0.012,-0.05 0.014,-0.093 0.014,-0.136 l 0,0 c 0,-0.025 0,-0.049 -10e-4,-0.074 l 0,0 c 0,-0.046 0.002,-0.094 0.016,-0.148 l 0,0 c 0.133,-0.543 0.129,-1.197 0.257,-1.702 l 0,0 c 0.048,-0.186 0.011,-0.369 0.058,-0.557 l 0,0 c 0.069,-0.28 0.075,-0.617 0.142,-0.901 l 0,0 c 0.01,-0.114 0.02,-0.228 0.029,-0.342 l 0,0 0.057,-0.258 0,-0.186 c 0.039,-0.159 0.076,-0.388 0.086,-0.557 l 0,0 0.2,-0.088 0.215,-0.055 0.243,-0.115 c 0.31,-0.127 0.682,-0.142 1.029,-0.229 l 0,0 0.572,0 c 0.562,0.001 1.118,0.158 1.516,0.344 l 0,0 c 0.147,0.068 0.286,0.208 0.442,0.257 l 0,0 c 0.021,0.257 0.045,0.549 0.101,0.786 l 0,0 0,0.172 c 0.039,0.164 0.045,0.396 0.086,0.558 l 0,0 0,0.171 c 0.039,0.172 0.046,0.401 0.085,0.572 l 0,0 c 0.058,0.247 0.03,0.515 0.087,0.743 l 0,0 0,0.171 c 0.038,0.164 0.046,0.394 0.085,0.558 l 0,0 0,0.186 c 0.047,0.191 0.086,0.446 0.086,0.665 l 0,0 c 0,0.008 0,0.015 0,0.022 l 0,0 -2.173,0 c -0.059,-0.86 0.024,-1.983 -0.257,-2.588 l 0,0 c -0.109,-0.233 -0.132,-0.399 -0.401,-0.472 l 0,0 -0.143,0 c -0.255,0.004 -0.301,0.235 -0.301,0.504 l 0,0 c 0,0.151 0.015,0.313 0.015,0.454 l 0,0 0,3.045 3.359,0 0.015,0.172 c 0.038,0.155 0.049,0.36 0.086,0.515 l 0,0 0,0.143 c 0.13,0.505 0.128,1.089 0.258,1.601 l 0,0 c 0.012,0.05 0.015,0.096 0.014,0.141 l 0,0 c 0,0.03 -10e-4,0.059 -10e-4,0.089 l 0,0 c 0,0.044 0.003,0.09 0.015,0.141 l 0,0 c 0.068,0.277 0.049,0.628 0.114,0.916 l 0,0 c 0.005,0.199 0.01,0.4 0.014,0.6 l 0,0 c 0.006,0.069 0.009,0.136 0.01,0.201 l 0,0 c 0,1.123 -0.894,1.703 -1.625,2.115 l 0,0 c -0.133,0.075 -0.296,0.081 -0.443,0.143 l 0,0 c -0.261,0.11 -0.757,0.233 -1.181,0.233 l 0,0 c -0.12,0 -0.234,-0.01 -0.335,-0.033 m 0.181,-1.184 c 0.016,0 0.032,-0.001 0.048,-0.003 l 0,0 c 0.353,-0.037 0.753,-0.344 0.843,-0.643 l 0,0 c 0.013,-0.04 0.017,-0.114 0.017,-0.2 l 0,0 c -0.001,-0.204 -0.028,-0.48 -0.045,-0.558 l 0,0 0,-0.271 c -0.079,-0.362 -0.062,-0.782 -0.143,-1.129 l 0,0 0,-0.158 c -0.063,-0.258 -0.049,-0.553 -0.114,-0.83 l 0,0 c -0.061,-0.255 -0.114,-0.566 -0.115,-0.858 l 0,0 c 0,-0.009 0,-0.019 0,-0.028 l 0,0 -0.942,0 c -0.036,0.182 -0.041,0.378 -0.041,0.578 l 0,0 c 0,0.084 0.001,0.169 0.001,0.254 l 0,0 c 0,0.207 -0.006,0.411 -0.047,0.598 l 0,0 c -0.014,0.066 -0.018,0.134 -0.018,0.203 l 0,0 c 0,0.069 0.003,0.137 0.003,0.202 l 0,0 c 0,0.059 -0.003,0.116 -0.014,0.166 l 0,0 0,0.43 c -0.011,0.054 -0.014,0.113 -0.014,0.175 l 0,0 c 0,0.069 0.004,0.141 0.004,0.213 l 0,0 c 0,0.072 -0.004,0.144 -0.019,0.212 l 0,0 c -0.026,0.126 -0.052,0.472 -0.051,0.69 l 0,0 c 0,0.067 0.003,0.121 0.008,0.154 l 0,0 0.015,0.214 c 0.022,0.061 0.054,0.131 0.095,0.201 l 0,0 c 0.113,0.193 0.294,0.388 0.529,0.388 m -21.055,1.127 -0.124,-0.012 -0.134,-0.017 c -0.787,-0.287 -1.029,-0.748 -1.358,-1.487 l 0,0 c -0.061,-0.136 -0.149,-0.297 -0.185,-0.457 l 0,0 -0.072,0 c 0.029,0.619 0.058,1.238 0.086,1.86 l 0,0 c -0.848,-0.028 -1.871,-0.016 -2.788,-0.016 l 0,0 c 0.009,-0.225 0.023,-0.497 0.071,-0.7 l 0,0 0,-0.257 c 0.028,-0.115 0.032,-0.314 0.058,-0.43 l 0,0 0,-0.228 c 0.03,-0.128 0.028,-0.33 0.056,-0.458 l 0,0 0,-0.215 c 0.081,-0.341 0.037,-0.76 0.115,-1.1 l 0,0 c 0.014,-0.063 0.018,-0.123 0.018,-0.182 l 0,0 c -10e-4,-0.07 -0.007,-0.139 -0.008,-0.209 l 0,0 c 0,-0.059 0.004,-0.118 0.019,-0.181 l 0,0 c 0.106,-0.448 0.04,-0.982 0.143,-1.43 l 0,0 0,-0.243 c 0.028,-0.121 0.029,-0.319 0.057,-0.443 l 0,0 0,-0.215 c 0.03,-0.126 0.028,-0.317 0.057,-0.443 l 0,0 0,-0.228 c 0.122,-0.503 0.047,-1.228 0.172,-1.773 l 0,0 c 0.027,-0.118 0.007,-0.249 0.029,-0.343 l 0,0 c 0.012,-0.056 0.016,-0.108 0.016,-0.16 l 0,0 c 10e-4,-0.075 -0.006,-0.147 -0.007,-0.221 l 0,0 c 0,-0.057 0.004,-0.116 0.019,-0.177 l 0,0 c 0.028,-0.123 0.028,-0.321 0.057,-0.443 l 0,0 0,-0.228 c 0.105,-0.449 0.041,-0.983 0.143,-1.431 l 0,0 0,-0.228 c 0.03,-0.128 0.028,-0.331 0.057,-0.458 l 0,0 c 0.006,-0.028 0.008,-0.056 0.008,-0.085 l 0,0 c 0,-0.039 -0.003,-0.078 -0.003,-0.114 l 0,0 c -10e-4,-0.043 0.004,-0.083 0.024,-0.115 l 0,0 0,-0.086 c 0.297,-0.056 0.77,-0.018 1.146,-0.015 l 0,0 c 0.018,10e-4 0.036,10e-4 0.054,10e-4 l 0,0 c 0.134,0 0.368,-0.014 0.445,0.008 l 0,0 c 0.006,0.002 0.01,0.004 0.014,0.006 l 0,0 0.028,0 0,8.034 0,1.673 c 0,0.42 0.026,0.82 0.3,0.958 l 0,0 c 0.078,0.04 0.154,0.057 0.226,0.057 l 0,0 c 0.253,0 0.454,-0.214 0.532,-0.414 l 0,0 c 0.03,-0.077 0.037,-0.178 0.037,-0.284 l 0,0 c 0,-0.107 -0.008,-0.219 -0.008,-0.317 l 0,0 0,-3.76 2.087,0 c 10e-4,0.137 0.028,0.286 0.057,0.401 l 0,0 0,0.171 c 0.039,0.151 0.05,0.361 0.086,0.515 l 0,0 0,0.143 c 0.056,0.226 0.067,0.554 0.114,0.743 l 0,0 0,0.158 c 0.033,0.131 0.019,0.29 0.058,0.443 l 0,0 c 0.128,0.515 0.099,1.116 0.228,1.63 l 0,0 0,0.171 c 0.095,0.363 0.079,0.809 0.172,1.173 l 0,0 c 0.014,0.054 0.015,0.117 0.015,0.179 l 0,0 c 0,0.016 0,0.031 0,0.047 l 0,0 c 0,0.088 0.003,0.172 0.042,0.231 l 0,0 0,0.143 -0.057,0.029 -0.057,0.085 -0.115,0.058 -0.029,0.057 -0.114,0.057 0,0.029 -0.085,0.028 c -0.301,0.226 -0.8,0.558 -1.361,0.558 l 0,0 c -0.112,0 -0.226,-0.013 -0.341,-0.043 m -7.677,-0.2 c 0,-0.02 0,-0.041 0,-0.061 l 0,0 c 0,-0.146 10e-4,-0.3 0.028,-0.425 l 0,0 0,-0.243 c 0,-0.083 -0.002,-0.167 -0.002,-0.251 l 0,0 c 0,-0.138 0.005,-0.273 0.03,-0.392 l 0,0 0,-0.258 c 0,-0.095 -0.003,-0.192 -0.003,-0.288 l 0,0 c 10e-4,-0.141 0.006,-0.278 0.032,-0.399 l 0,0 0,-0.529 c 10e-4,-0.11 0.007,-0.282 0.029,-0.385 l 0,0 0,-0.244 c 0,-0.092 -0.002,-0.187 -0.003,-0.281 l 0,0 c 0,-0.137 0.005,-0.272 0.031,-0.39 l 0,0 0,-0.515 c 0.002,-0.107 0.007,-0.272 0.029,-0.372 l 0,0 0,-0.243 c 0,-0.083 -0.002,-0.167 -0.002,-0.251 l 0,0 c 0,-0.138 0.005,-0.274 0.032,-0.392 l 0,0 0,-0.658 c 0.025,-0.121 0.029,-0.259 0.029,-0.401 l 0,0 c 0,-0.085 -0.002,-0.172 -0.002,-0.257 l 0,0 0,-0.243 c 0.022,-0.103 0.027,-0.275 0.029,-0.385 l 0,0 c 0,-0.006 0,-0.011 0,-0.016 l 0,0 c 10e-4,-0.087 -0.004,-0.184 -0.004,-0.276 l 0,0 c -10e-4,-0.086 0.003,-0.169 0.018,-0.236 l 0,0 c 0.007,-0.036 0.009,-0.077 0.009,-0.117 l 0,0 c 0,-0.035 -0.002,-0.069 -10e-4,-0.101 l 0,0 c 0,-0.031 10e-4,-0.06 0.006,-0.084 l 0,0 0,-0.6 c 0.005,-0.025 0.007,-0.056 0.007,-0.089 l 0,0 c 0,-0.033 -10e-4,-0.069 -10e-4,-0.104 l 0,0 c 0,-0.043 10e-4,-0.086 0.009,-0.122 l 0,0 c 0.014,-0.067 0.018,-0.147 0.018,-0.231 l 0,0 c 0,-0.084 -0.004,-0.172 -0.004,-0.252 l 0,0 c 0,-0.01 0,-0.021 0,-0.031 l 0,0 c 0.002,-0.114 0.005,-0.294 0.029,-0.401 l 0,0 0,-0.243 c 0,-0.082 -0.002,-0.166 -0.002,-0.249 l 0,0 c 0,-0.139 0.004,-0.274 0.03,-0.394 l 0,0 c 0.015,-0.072 0.02,-0.166 0.02,-0.264 l 0,0 c 0,-0.121 -0.007,-0.247 -0.007,-0.343 l 0,0 c 0,-0.018 0,-0.035 0.001,-0.051 l 0,0 0.014,-0.286 c 0,-0.086 -0.009,-0.194 -0.009,-0.294 l 0,0 c 0,-0.078 0.005,-0.152 0.024,-0.207 l 0,0 0.872,0 c 0.129,0 0.31,-0.02 0.415,0.015 l 0,0 c 0.002,0.279 0.014,0.604 0.071,0.857 l 0,0 0,0.258 c 0.032,0.135 0.027,0.351 0.057,0.486 l 0,0 0,0.257 c 0.035,0.145 0.025,0.368 0.057,0.515 l 0,0 0,0.23 c 0.093,0.387 0.027,0.867 0.115,1.257 l 0,0 c 0.014,0.059 0.018,0.115 0.018,0.171 l 0,0 c 0,0.081 -0.008,0.159 -0.009,0.24 l 0,0 c 0,0.062 0.004,0.124 0.019,0.19 l 0,0 c 0.121,0.507 0.029,1.132 0.143,1.643 l 0,0 c 0.01,0.206 0.019,0.411 0.029,0.616 l 0,0 c 0.118,0.494 0.031,1.089 0.143,1.587 l 0,0 c 0.009,0.205 0.019,0.409 0.029,0.614 l 0,0 c 0.091,0.389 0.027,0.857 0.114,1.244 l 0,0 0,0.272 c 0.033,0.135 0.026,0.347 0.057,0.486 l 0,0 0,0.256 c 0.038,0.158 0.027,0.355 0.058,0.487 l 0,0 0,0.229 c 0.059,0.251 0.071,0.677 0.085,0.944 l 0,0 -2.687,0 z m -5.633,-0.029 c -0.233,-0.072 -0.448,-0.146 -0.629,-0.257 l 0,0 -0.058,0 c -0.277,-0.177 -0.562,-0.446 -0.687,-0.772 l 0,0 c -0.035,-0.093 -0.049,-0.256 -0.049,-0.439 l 0,0 c 0,-0.305 0.038,-0.664 0.078,-0.848 l 0,0 c 0.014,-0.062 0.017,-0.125 0.017,-0.187 l 0,0 c -0.001,-0.076 -0.007,-0.151 -0.007,-0.227 l 0,0 c 0,-0.062 0.004,-0.125 0.019,-0.187 l 0,0 c 0.061,-0.259 0.027,-0.597 0.085,-0.857 l 0,0 0,-0.258 c 0.06,-0.249 0.029,-0.578 0.087,-0.829 l 0,0 0,-0.271 c 0.032,-0.139 0.025,-0.359 0.056,-0.501 l 0,0 0,-0.228 c 0.033,-0.135 0.027,-0.351 0.058,-0.486 l 0,0 0,-0.258 c 0.023,-0.102 -0.002,-0.246 0.028,-0.372 l 0,0 c 0.023,-0.098 0,-0.235 0.029,-0.357 l 0,0 c 0.116,-0.489 0.027,-1.074 0.143,-1.587 l 0,0 0,-0.258 c 0.12,-0.508 0.033,-1.118 0.143,-1.601 l 0,0 c 0.011,-0.049 0.013,-0.122 0.013,-0.201 l 0,0 c 0,-0.043 -0.001,-0.088 -0.001,-0.132 l 0,0 c 0,-0.108 0.004,-0.208 0.031,-0.253 l 0,0 -0.043,-0.014 c 0.048,-0.079 0.148,-0.051 0.243,-0.087 l 0,0 c 0.229,-0.084 0.526,-0.085 0.843,-0.085 l 0,0 c 0.225,0 0.401,0.052 0.558,0.114 l 0,0 c 0.665,0.266 0.945,0.516 1.273,1.115 l 0,0 0.171,0 0,-2.43 c 0,-0.031 0,-0.062 0,-0.093 l 0,0 c 0,-0.461 -0.009,-0.865 -0.285,-1.051 l 0,0 c -0.072,-0.049 -0.151,-0.071 -0.23,-0.074 l 0,0 c -0.006,0 -0.011,0 -0.017,0 l 0,0 c -0.329,0 -0.666,0.34 -0.583,0.675 l 0,0 c 0.109,0.44 0.296,0.851 0.386,1.287 l 0,0 -0.015,0 c -0.065,0.028 -0.637,0.009 -0.743,-0.015 l 0,0 c -0.505,-0.014 -1.01,-0.028 -1.515,-0.043 l 0,0 c 0.08,-1.101 0.161,-2.201 0.242,-3.302 l 0,0 c 0.506,-0.255 1.018,-0.43 1.709,-0.484 l 0,0 c 10e-4,0 0.002,0 0.003,0 l 0,0 c 0.005,0 0.011,-10e-4 0.016,-10e-4 l 0,0 c 0.139,-0.01 0.286,-0.015 0.441,-0.015 l 0,0 0.005,0 c 0.058,0 0.116,0 0.175,0 l 0,0 c 0.149,0 0.297,0.003 0.411,0.028 l 0,0 0.228,0 c 0.252,0.065 0.553,0.079 0.787,0.17 l 0,0 c 0.149,0.06 0.311,0.172 0.472,0.201 l 0,0 c 0.352,3.527 0.705,7.053 1.058,10.582 l 0,0 c 0.036,0.38 0.059,0.895 0.143,1.257 l 0,0 c 0.013,0.056 0.016,0.11 0.016,0.163 l 0,0 c 0,0.063 -0.006,0.124 -0.006,0.188 l 0,0 c 0,0.053 0.005,0.107 0.019,0.164 l 0,0 c 0.071,0.285 0.094,0.661 0.1,0.986 l 0,0 c 0.002,0.081 0.002,0.161 0.002,0.24 l 0,0 c 0,0.174 -0.002,0.345 -0.002,0.518 l 0,0 c 0,0.052 0.008,0.134 0.008,0.207 l 0,0 c 0,0.056 -0.005,0.107 -0.023,0.136 l 0,0 c 0,0.131 0.016,0.358 0.016,0.557 l 0,0 c 0,0.136 -0.007,0.259 -0.03,0.329 l 0,0 -2.788,0 0,-0.843 c 0,-0.057 0.004,-0.124 0.004,-0.188 l 0,0 c 0,-0.064 -0.004,-0.124 -0.019,-0.169 l 0,0 -0.156,0 -0.114,0.257 c -0.113,0.178 -0.219,0.388 -0.36,0.543 l 0,0 c -0.224,0.252 -0.516,0.403 -0.884,0.514 l 0,0 -0.217,0.017 -0.212,0.012 c -0.047,0.011 -0.147,0.019 -0.244,0.019 l 0,0 -0.199,-0.019 z m 2.23,-1.758 0.243,-0.044 c 0.277,-0.161 0.323,-0.514 0.324,-0.922 l 0,0 c 10e-4,-0.199 -0.01,-0.412 -0.01,-0.621 l 0,0 0,-4.275 c 0,-0.246 0.016,-0.502 0.016,-0.742 l 0,0 c -10e-4,-0.49 -0.067,-0.908 -0.473,-1.017 l 0,0 c -0.033,-0.009 -0.064,-0.013 -0.094,-0.013 l 0,0 c -0.147,0 -0.258,0.094 -0.321,0.156 l 0,0 c -0.182,0.18 -0.216,0.53 -0.215,0.907 l 0,0 c 0,0.242 0.015,0.496 0.015,0.723 l 0,0 0,3.904 c 0,0.218 -0.018,0.536 -0.018,0.846 l 0,0 c 0,0.398 0.029,0.783 0.161,0.926 l 0,0 0.229,0.157 0.075,0.007 0.024,-0.001 0.044,0.009 z"/>
    </clipPath>
    <clipPath id="clipPath37990" clipPathUnits="userSpaceOnUse">
      <path inkscape:connector-curvature="0" id="path37992" d="m 734.173,50.773 303.307,0 0,278.045 -303.307,0 0,-278.045 z"/>
    </clipPath>
    <clipPath id="clipPath38002" clipPathUnits="userSpaceOnUse">
      <path inkscape:connector-curvature="0" id="path38004" d="m 890.078,337.323 147.402,0 0,124.725 -147.402,0 0,-124.725 z"/>
    </clipPath>
    <clipPath id="clipPath39711" clipPathUnits="userSpaceOnUse">
      <path inkscape:connector-curvature="0" id="path39713" d="m 5137.85,527.32 -4394.401,0 0,4394.4 4394.401,0 0,-4394.4 m -2307.5,600.26 c 7.11,0 14.18,0 21.25,-0.06 484.47,-1.07 823.26,-39.06 1092.17,-85.39 27.15,-4.67 53.55,-9.43 79.34,-14.22 231.36,-43.219 416.4,-82.16 550.43,-121.109 30.97,-8.981 59.21,-17.992 84.64,-27.031 10.39,-3.668 22.58,-6.329 35.67,-6.372 0.1,0 0.2,0 0.31,0 12.41,0 25.62,2.321 38.83,8.364 10.27,4.726 20.58,11.679 30.43,21.558 20.04,20.02 28.16,41.762 29.72,61.918 0.17,2.352 0.25,4.692 0.25,6.992 0,7.891 -0.92,15.469 -2.43,22.54 -1.06,4.8 -2.43,9.43 -3.95,13.71 -18.32,51.48 -36.4,114.34 -54.73,188.09 -29.92,120.5 -60.42,270.13 -93.43,446.77 -12.31,65.86 -24.26,135.86 -35.35,211.31 -36.53,248.34 -63.79,555.53 -64.38,967.91 0,4.32 0,8.67 0,12.99 0,352.64 19.45,628.85 47.66,857.09 15.35,124.45 33.28,234.64 52.07,335.17 53.2,284.7 99.65,499.27 148.16,634.88 4.31,11.99 5.83,22.7 5.83,32.33 -0.01,11.25 -2.1,21 -4.27,29.56 -2.11,8.31 -3.12,10.26 -7.73,19.83 -4.06,8.3 -10,16.01 -17.23,23.28 -9.06,9.02 -19.06,15.54 -29.33,20.08 -13.28,5.78 -27.11,8.24 -40.12,8.3 -0.17,0 -0.33,0 -0.5,0 -12.63,0 -24.51,-2.21 -34.34,-5.73 -25.71,-9.1 -54.14,-18.2 -85.39,-27.22 -133.99,-38.89 -318.76,-77.78 -549.73,-120.9 -26.13,-4.9 -52.93,-9.73 -80.43,-14.41 -269.22,-46.35 -608.48,-84.3 -1093.58,-85.24 -6.24,0 -12.49,0 -18.78,0 -454.34,0 -781.88,32.25 -1043.44,73.83 -52.23,8.28 -101.84,16.95 -149.26,25.82 -284.8,53.2 -499.37,99.88 -635.12,148.12 -2.61,0.94 -5.309,1.8 -8.16,2.56 -8.469,2.32 -17.856,3.82 -27.731,3.82 -5.386,0 -10.918,-0.45 -16.527,-1.45 -17.5,-3.09 -35.742,-11.49 -52.774,-28.52 -7.968,-7.93 -14.023,-16.17 -18.554,-24.41 -6.758,-12.39 -10.078,-24.89 -11.055,-36.84 -0.23,-2.71 -0.336,-5.41 -0.336,-8.06 0.008,-13.15 2.684,-25.44 6.391,-35.85 48.242,-135.7 94.961,-350.15 148.166,-634.88 18.75,-100.15 36.6,-209.85 51.95,-333.72 28.24,-228.51 47.77,-505.15 47.77,-858.51 0,-3.4 0,-6.76 0,-10.16 -0.43,-412.87 -27.65,-720.47 -64.1,-969.1 -11.17,-76.06 -23.2,-146.62 -35.62,-212.97 -32.854,-175.84 -63.244,-324.9 -93.049,-445.18 -18.438,-74.41 -36.68,-137.81 -55.117,-189.68 -1.367,-3.79 -2.5,-7.859 -3.438,-12.171 -1.465,-6.899 -2.293,-14.36 -2.293,-22.098 0,-2.801 0.114,-5.641 0.34,-8.512 1.641,-20.898 9.688,-43.078 28.047,-61.48 15.547,-15.508 33.984,-23.789 52.07,-27.149 6.524,-1.21 13.016,-1.761 19.301,-1.761 9.527,0 18.59,1.261 26.637,3.402 2.422,0.629 4.762,1.367 6.992,2.149 135.74,48.242 350.31,94.921 635.12,148.14 47.89,8.91 97.93,17.68 150.66,26.04 261.33,41.44 588.52,73.63 1042.07,73.63"/>
    </clipPath>
    <clipPath id="clipPath39717" clipPathUnits="userSpaceOnUse">
      <path inkscape:connector-curvature="0" id="path39719" d="m 738.648,4926.52 0,-343.2 4404.002,0 0,343.2 -4404.002,0 z"/>
    </clipPath>
    <clipPath id="clipPath39729" clipPathUnits="userSpaceOnUse">
      <path inkscape:connector-curvature="0" id="path39731" d="m 5137.85,527.32 -4394.401,0 0,4394.4 4394.401,0 0,-4394.4 m -2307.5,600.26 c 7.11,0 14.18,0 21.25,-0.06 484.47,-1.07 823.26,-39.06 1092.17,-85.39 27.15,-4.67 53.55,-9.43 79.34,-14.22 231.36,-43.219 416.4,-82.16 550.43,-121.109 30.97,-8.981 59.21,-17.992 84.64,-27.031 10.39,-3.668 22.58,-6.329 35.67,-6.372 0.1,0 0.2,0 0.31,0 12.41,0 25.62,2.321 38.83,8.364 10.27,4.726 20.58,11.679 30.43,21.558 20.04,20.02 28.16,41.762 29.72,61.918 0.17,2.352 0.25,4.692 0.25,6.992 0,7.891 -0.92,15.469 -2.43,22.54 -1.06,4.8 -2.43,9.43 -3.95,13.71 -18.32,51.48 -36.4,114.34 -54.73,188.09 -29.92,120.5 -60.42,270.13 -93.43,446.77 -12.31,65.86 -24.26,135.86 -35.35,211.31 -36.53,248.34 -63.79,555.53 -64.38,967.91 0,4.32 0,8.67 0,12.99 0,352.64 19.45,628.85 47.66,857.09 15.35,124.45 33.28,234.64 52.07,335.17 53.2,284.7 99.65,499.27 148.16,634.88 4.31,11.99 5.83,22.7 5.83,32.33 -0.01,11.25 -2.1,21 -4.27,29.56 -2.11,8.31 -3.12,10.26 -7.73,19.83 -4.06,8.3 -10,16.01 -17.23,23.28 -9.06,9.02 -19.06,15.54 -29.33,20.08 -13.28,5.78 -27.11,8.24 -40.12,8.3 -0.17,0 -0.33,0 -0.5,0 -12.63,0 -24.51,-2.21 -34.34,-5.73 -25.71,-9.1 -54.14,-18.2 -85.39,-27.22 -133.99,-38.89 -318.76,-77.78 -549.73,-120.9 -26.13,-4.9 -52.93,-9.73 -80.43,-14.41 -269.22,-46.35 -608.48,-84.3 -1093.58,-85.24 -6.24,0 -12.49,0 -18.78,0 -454.34,0 -781.88,32.25 -1043.44,73.83 -52.23,8.28 -101.84,16.95 -149.26,25.82 -284.8,53.2 -499.37,99.88 -635.12,148.12 -2.61,0.94 -5.309,1.8 -8.16,2.56 -8.469,2.32 -17.856,3.82 -27.731,3.82 -5.386,0 -10.918,-0.45 -16.527,-1.45 -17.5,-3.09 -35.742,-11.49 -52.774,-28.52 -7.968,-7.93 -14.023,-16.17 -18.554,-24.41 -6.758,-12.39 -10.078,-24.89 -11.055,-36.84 -0.23,-2.71 -0.336,-5.41 -0.336,-8.06 0.008,-13.15 2.684,-25.44 6.391,-35.85 48.242,-135.7 94.961,-350.15 148.166,-634.88 18.75,-100.15 36.6,-209.85 51.95,-333.72 28.24,-228.51 47.77,-505.15 47.77,-858.51 0,-3.4 0,-6.76 0,-10.16 -0.43,-412.87 -27.65,-720.47 -64.1,-969.1 -11.17,-76.06 -23.2,-146.62 -35.62,-212.97 -32.854,-175.84 -63.244,-324.9 -93.049,-445.18 -18.438,-74.41 -36.68,-137.81 -55.117,-189.68 -1.367,-3.79 -2.5,-7.859 -3.438,-12.171 -1.465,-6.899 -2.293,-14.36 -2.293,-22.098 0,-2.801 0.114,-5.641 0.34,-8.512 1.641,-20.898 9.688,-43.078 28.047,-61.48 15.547,-15.508 33.984,-23.789 52.07,-27.149 6.524,-1.21 13.016,-1.761 19.301,-1.761 9.527,0 18.59,1.261 26.637,3.402 2.422,0.629 4.762,1.367 6.992,2.149 135.74,48.242 350.31,94.921 635.12,148.14 47.89,8.91 97.93,17.68 150.66,26.04 261.33,41.44 588.52,73.63 1042.07,73.63"/>
    </clipPath>
    <clipPath id="clipPath39735" clipPathUnits="userSpaceOnUse">
      <path inkscape:connector-curvature="0" id="path39737" d="m 738.648,4588.12 0,-4065.6 343.202,0 0,4065.6 -343.202,0 z"/>
    </clipPath>
    <clipPath id="clipPath39747" clipPathUnits="userSpaceOnUse">
      <path inkscape:connector-curvature="0" id="path39749" d="m 5137.85,527.32 -4394.401,0 0,4394.4 4394.401,0 0,-4394.4 m -2307.5,600.26 c 7.11,0 14.18,0 21.25,-0.06 484.47,-1.07 823.26,-39.06 1092.17,-85.39 27.15,-4.67 53.55,-9.43 79.34,-14.22 231.36,-43.219 416.4,-82.16 550.43,-121.109 30.97,-8.981 59.21,-17.992 84.64,-27.031 10.39,-3.668 22.58,-6.329 35.67,-6.372 0.1,0 0.2,0 0.31,0 12.41,0 25.62,2.321 38.83,8.364 10.27,4.726 20.58,11.679 30.43,21.558 20.04,20.02 28.16,41.762 29.72,61.918 0.17,2.352 0.25,4.692 0.25,6.992 0,7.891 -0.92,15.469 -2.43,22.54 -1.06,4.8 -2.43,9.43 -3.95,13.71 -18.32,51.48 -36.4,114.34 -54.73,188.09 -29.92,120.5 -60.42,270.13 -93.43,446.77 -12.31,65.86 -24.26,135.86 -35.35,211.31 -36.53,248.34 -63.79,555.53 -64.38,967.91 0,4.32 0,8.67 0,12.99 0,352.64 19.45,628.85 47.66,857.09 15.35,124.45 33.28,234.64 52.07,335.17 53.2,284.7 99.65,499.27 148.16,634.88 4.31,11.99 5.83,22.7 5.83,32.33 -0.01,11.25 -2.1,21 -4.27,29.56 -2.11,8.31 -3.12,10.26 -7.73,19.83 -4.06,8.3 -10,16.01 -17.23,23.28 -9.06,9.02 -19.06,15.54 -29.33,20.08 -13.28,5.78 -27.11,8.24 -40.12,8.3 -0.17,0 -0.33,0 -0.5,0 -12.63,0 -24.51,-2.21 -34.34,-5.73 -25.71,-9.1 -54.14,-18.2 -85.39,-27.22 -133.99,-38.89 -318.76,-77.78 -549.73,-120.9 -26.13,-4.9 -52.93,-9.73 -80.43,-14.41 -269.22,-46.35 -608.48,-84.3 -1093.58,-85.24 -6.24,0 -12.49,0 -18.78,0 -454.34,0 -781.88,32.25 -1043.44,73.83 -52.23,8.28 -101.84,16.95 -149.26,25.82 -284.8,53.2 -499.37,99.88 -635.12,148.12 -2.61,0.94 -5.309,1.8 -8.16,2.56 -8.469,2.32 -17.856,3.82 -27.731,3.82 -5.386,0 -10.918,-0.45 -16.527,-1.45 -17.5,-3.09 -35.742,-11.49 -52.774,-28.52 -7.968,-7.93 -14.023,-16.17 -18.554,-24.41 -6.758,-12.39 -10.078,-24.89 -11.055,-36.84 -0.23,-2.71 -0.336,-5.41 -0.336,-8.06 0.008,-13.15 2.684,-25.44 6.391,-35.85 48.242,-135.7 94.961,-350.15 148.166,-634.88 18.75,-100.15 36.6,-209.85 51.95,-333.72 28.24,-228.51 47.77,-505.15 47.77,-858.51 0,-3.4 0,-6.76 0,-10.16 -0.43,-412.87 -27.65,-720.47 -64.1,-969.1 -11.17,-76.06 -23.2,-146.62 -35.62,-212.97 -32.854,-175.84 -63.244,-324.9 -93.049,-445.18 -18.438,-74.41 -36.68,-137.81 -55.117,-189.68 -1.367,-3.79 -2.5,-7.859 -3.438,-12.171 -1.465,-6.899 -2.293,-14.36 -2.293,-22.098 0,-2.801 0.114,-5.641 0.34,-8.512 1.641,-20.898 9.688,-43.078 28.047,-61.48 15.547,-15.508 33.984,-23.789 52.07,-27.149 6.524,-1.21 13.016,-1.761 19.301,-1.761 9.527,0 18.59,1.261 26.637,3.402 2.422,0.629 4.762,1.367 6.992,2.149 135.74,48.242 350.31,94.921 635.12,148.14 47.89,8.91 97.93,17.68 150.66,26.04 261.33,41.44 588.52,73.63 1042.07,73.63"/>
    </clipPath>
    <clipPath id="clipPath39753" clipPathUnits="userSpaceOnUse">
      <path inkscape:connector-curvature="0" id="path39755" d="m 1753.85,4588.12 0,-343.2 2035.2,0 0,343.2 -2035.2,0 z"/>
    </clipPath>
    <clipPath id="clipPath39765" clipPathUnits="userSpaceOnUse">
      <path inkscape:connector-curvature="0" id="path39767" d="m 5137.85,527.32 -4394.401,0 0,4394.4 4394.401,0 0,-4394.4 m -2307.5,600.26 c 7.11,0 14.18,0 21.25,-0.06 484.47,-1.07 823.26,-39.06 1092.17,-85.39 27.15,-4.67 53.55,-9.43 79.34,-14.22 231.36,-43.219 416.4,-82.16 550.43,-121.109 30.97,-8.981 59.21,-17.992 84.64,-27.031 10.39,-3.668 22.58,-6.329 35.67,-6.372 0.1,0 0.2,0 0.31,0 12.41,0 25.62,2.321 38.83,8.364 10.27,4.726 20.58,11.679 30.43,21.558 20.04,20.02 28.16,41.762 29.72,61.918 0.17,2.352 0.25,4.692 0.25,6.992 0,7.891 -0.92,15.469 -2.43,22.54 -1.06,4.8 -2.43,9.43 -3.95,13.71 -18.32,51.48 -36.4,114.34 -54.73,188.09 -29.92,120.5 -60.42,270.13 -93.43,446.77 -12.31,65.86 -24.26,135.86 -35.35,211.31 -36.53,248.34 -63.79,555.53 -64.38,967.91 0,4.32 0,8.67 0,12.99 0,352.64 19.45,628.85 47.66,857.09 15.35,124.45 33.28,234.64 52.07,335.17 53.2,284.7 99.65,499.27 148.16,634.88 4.31,11.99 5.83,22.7 5.83,32.33 -0.01,11.25 -2.1,21 -4.27,29.56 -2.11,8.31 -3.12,10.26 -7.73,19.83 -4.06,8.3 -10,16.01 -17.23,23.28 -9.06,9.02 -19.06,15.54 -29.33,20.08 -13.28,5.78 -27.11,8.24 -40.12,8.3 -0.17,0 -0.33,0 -0.5,0 -12.63,0 -24.51,-2.21 -34.34,-5.73 -25.71,-9.1 -54.14,-18.2 -85.39,-27.22 -133.99,-38.89 -318.76,-77.78 -549.73,-120.9 -26.13,-4.9 -52.93,-9.73 -80.43,-14.41 -269.22,-46.35 -608.48,-84.3 -1093.58,-85.24 -6.24,0 -12.49,0 -18.78,0 -454.34,0 -781.88,32.25 -1043.44,73.83 -52.23,8.28 -101.84,16.95 -149.26,25.82 -284.8,53.2 -499.37,99.88 -635.12,148.12 -2.61,0.94 -5.309,1.8 -8.16,2.56 -8.469,2.32 -17.856,3.82 -27.731,3.82 -5.386,0 -10.918,-0.45 -16.527,-1.45 -17.5,-3.09 -35.742,-11.49 -52.774,-28.52 -7.968,-7.93 -14.023,-16.17 -18.554,-24.41 -6.758,-12.39 -10.078,-24.89 -11.055,-36.84 -0.23,-2.71 -0.336,-5.41 -0.336,-8.06 0.008,-13.15 2.684,-25.44 6.391,-35.85 48.242,-135.7 94.961,-350.15 148.166,-634.88 18.75,-100.15 36.6,-209.85 51.95,-333.72 28.24,-228.51 47.77,-505.15 47.77,-858.51 0,-3.4 0,-6.76 0,-10.16 -0.43,-412.87 -27.65,-720.47 -64.1,-969.1 -11.17,-76.06 -23.2,-146.62 -35.62,-212.97 -32.854,-175.84 -63.244,-324.9 -93.049,-445.18 -18.438,-74.41 -36.68,-137.81 -55.117,-189.68 -1.367,-3.79 -2.5,-7.859 -3.438,-12.171 -1.465,-6.899 -2.293,-14.36 -2.293,-22.098 0,-2.801 0.114,-5.641 0.34,-8.512 1.641,-20.898 9.688,-43.078 28.047,-61.48 15.547,-15.508 33.984,-23.789 52.07,-27.149 6.524,-1.21 13.016,-1.761 19.301,-1.761 9.527,0 18.59,1.261 26.637,3.402 2.422,0.629 4.762,1.367 6.992,2.149 135.74,48.242 350.31,94.921 635.12,148.14 47.89,8.91 97.93,17.68 150.66,26.04 261.33,41.44 588.52,73.63 1042.07,73.63"/>
    </clipPath>
    <clipPath id="clipPath39771" clipPathUnits="userSpaceOnUse">
      <path inkscape:connector-curvature="0" id="path39773" d="m 4461.05,4588.12 0,-4065.6 681.6,0 0,4065.6 -681.6,0 z"/>
    </clipPath>
    <clipPath id="clipPath39783" clipPathUnits="userSpaceOnUse">
      <path inkscape:connector-curvature="0" id="path39785" d="m 5137.85,527.32 -4394.401,0 0,4394.4 4394.401,0 0,-4394.4 m -2307.5,600.26 c 7.11,0 14.18,0 21.25,-0.06 484.47,-1.07 823.26,-39.06 1092.17,-85.39 27.15,-4.67 53.55,-9.43 79.34,-14.22 231.36,-43.219 416.4,-82.16 550.43,-121.109 30.97,-8.981 59.21,-17.992 84.64,-27.031 10.39,-3.668 22.58,-6.329 35.67,-6.372 0.1,0 0.2,0 0.31,0 12.41,0 25.62,2.321 38.83,8.364 10.27,4.726 20.58,11.679 30.43,21.558 20.04,20.02 28.16,41.762 29.72,61.918 0.17,2.352 0.25,4.692 0.25,6.992 0,7.891 -0.92,15.469 -2.43,22.54 -1.06,4.8 -2.43,9.43 -3.95,13.71 -18.32,51.48 -36.4,114.34 -54.73,188.09 -29.92,120.5 -60.42,270.13 -93.43,446.77 -12.31,65.86 -24.26,135.86 -35.35,211.31 -36.53,248.34 -63.79,555.53 -64.38,967.91 0,4.32 0,8.67 0,12.99 0,352.64 19.45,628.85 47.66,857.09 15.35,124.45 33.28,234.64 52.07,335.17 53.2,284.7 99.65,499.27 148.16,634.88 4.31,11.99 5.83,22.7 5.83,32.33 -0.01,11.25 -2.1,21 -4.27,29.56 -2.11,8.31 -3.12,10.26 -7.73,19.83 -4.06,8.3 -10,16.01 -17.23,23.28 -9.06,9.02 -19.06,15.54 -29.33,20.08 -13.28,5.78 -27.11,8.24 -40.12,8.3 -0.17,0 -0.33,0 -0.5,0 -12.63,0 -24.51,-2.21 -34.34,-5.73 -25.71,-9.1 -54.14,-18.2 -85.39,-27.22 -133.99,-38.89 -318.76,-77.78 -549.73,-120.9 -26.13,-4.9 -52.93,-9.73 -80.43,-14.41 -269.22,-46.35 -608.48,-84.3 -1093.58,-85.24 -6.24,0 -12.49,0 -18.78,0 -454.34,0 -781.88,32.25 -1043.44,73.83 -52.23,8.28 -101.84,16.95 -149.26,25.82 -284.8,53.2 -499.37,99.88 -635.12,148.12 -2.61,0.94 -5.309,1.8 -8.16,2.56 -8.469,2.32 -17.856,3.82 -27.731,3.82 -5.386,0 -10.918,-0.45 -16.527,-1.45 -17.5,-3.09 -35.742,-11.49 -52.774,-28.52 -7.968,-7.93 -14.023,-16.17 -18.554,-24.41 -6.758,-12.39 -10.078,-24.89 -11.055,-36.84 -0.23,-2.71 -0.336,-5.41 -0.336,-8.06 0.008,-13.15 2.684,-25.44 6.391,-35.85 48.242,-135.7 94.961,-350.15 148.166,-634.88 18.75,-100.15 36.6,-209.85 51.95,-333.72 28.24,-228.51 47.77,-505.15 47.77,-858.51 0,-3.4 0,-6.76 0,-10.16 -0.43,-412.87 -27.65,-720.47 -64.1,-969.1 -11.17,-76.06 -23.2,-146.62 -35.62,-212.97 -32.854,-175.84 -63.244,-324.9 -93.049,-445.18 -18.438,-74.41 -36.68,-137.81 -55.117,-189.68 -1.367,-3.79 -2.5,-7.859 -3.438,-12.171 -1.465,-6.899 -2.293,-14.36 -2.293,-22.098 0,-2.801 0.114,-5.641 0.34,-8.512 1.641,-20.898 9.688,-43.078 28.047,-61.48 15.547,-15.508 33.984,-23.789 52.07,-27.149 6.524,-1.21 13.016,-1.761 19.301,-1.761 9.527,0 18.59,1.261 26.637,3.402 2.422,0.629 4.762,1.367 6.992,2.149 135.74,48.242 350.31,94.921 635.12,148.14 47.89,8.91 97.93,17.68 150.66,26.04 261.33,41.44 588.52,73.63 1042.07,73.63"/>
    </clipPath>
    <clipPath id="clipPath39789" clipPathUnits="userSpaceOnUse">
      <path inkscape:connector-curvature="0" id="path39791" d="m 1077.05,3911.32 0,-2035.2 343.2,0 0,2035.2 -343.2,0 z"/>
    </clipPath>
    <clipPath id="clipPath39801" clipPathUnits="userSpaceOnUse">
      <path inkscape:connector-curvature="0" id="path39803" d="m 5137.85,527.32 -4394.401,0 0,4394.4 4394.401,0 0,-4394.4 m -2307.5,600.26 c 7.11,0 14.18,0 21.25,-0.06 484.47,-1.07 823.26,-39.06 1092.17,-85.39 27.15,-4.67 53.55,-9.43 79.34,-14.22 231.36,-43.219 416.4,-82.16 550.43,-121.109 30.97,-8.981 59.21,-17.992 84.64,-27.031 10.39,-3.668 22.58,-6.329 35.67,-6.372 0.1,0 0.2,0 0.31,0 12.41,0 25.62,2.321 38.83,8.364 10.27,4.726 20.58,11.679 30.43,21.558 20.04,20.02 28.16,41.762 29.72,61.918 0.17,2.352 0.25,4.692 0.25,6.992 0,7.891 -0.92,15.469 -2.43,22.54 -1.06,4.8 -2.43,9.43 -3.95,13.71 -18.32,51.48 -36.4,114.34 -54.73,188.09 -29.92,120.5 -60.42,270.13 -93.43,446.77 -12.31,65.86 -24.26,135.86 -35.35,211.31 -36.53,248.34 -63.79,555.53 -64.38,967.91 0,4.32 0,8.67 0,12.99 0,352.64 19.45,628.85 47.66,857.09 15.35,124.45 33.28,234.64 52.07,335.17 53.2,284.7 99.65,499.27 148.16,634.88 4.31,11.99 5.83,22.7 5.83,32.33 -0.01,11.25 -2.1,21 -4.27,29.56 -2.11,8.31 -3.12,10.26 -7.73,19.83 -4.06,8.3 -10,16.01 -17.23,23.28 -9.06,9.02 -19.06,15.54 -29.33,20.08 -13.28,5.78 -27.11,8.24 -40.12,8.3 -0.17,0 -0.33,0 -0.5,0 -12.63,0 -24.51,-2.21 -34.34,-5.73 -25.71,-9.1 -54.14,-18.2 -85.39,-27.22 -133.99,-38.89 -318.76,-77.78 -549.73,-120.9 -26.13,-4.9 -52.93,-9.73 -80.43,-14.41 -269.22,-46.35 -608.48,-84.3 -1093.58,-85.24 -6.24,0 -12.49,0 -18.78,0 -454.34,0 -781.88,32.25 -1043.44,73.83 -52.23,8.28 -101.84,16.95 -149.26,25.82 -284.8,53.2 -499.37,99.88 -635.12,148.12 -2.61,0.94 -5.309,1.8 -8.16,2.56 -8.469,2.32 -17.856,3.82 -27.731,3.82 -5.386,0 -10.918,-0.45 -16.527,-1.45 -17.5,-3.09 -35.742,-11.49 -52.774,-28.52 -7.968,-7.93 -14.023,-16.17 -18.554,-24.41 -6.758,-12.39 -10.078,-24.89 -11.055,-36.84 -0.23,-2.71 -0.336,-5.41 -0.336,-8.06 0.008,-13.15 2.684,-25.44 6.391,-35.85 48.242,-135.7 94.961,-350.15 148.166,-634.88 18.75,-100.15 36.6,-209.85 51.95,-333.72 28.24,-228.51 47.77,-505.15 47.77,-858.51 0,-3.4 0,-6.76 0,-10.16 -0.43,-412.87 -27.65,-720.47 -64.1,-969.1 -11.17,-76.06 -23.2,-146.62 -35.62,-212.97 -32.854,-175.84 -63.244,-324.9 -93.049,-445.18 -18.438,-74.41 -36.68,-137.81 -55.117,-189.68 -1.367,-3.79 -2.5,-7.859 -3.438,-12.171 -1.465,-6.899 -2.293,-14.36 -2.293,-22.098 0,-2.801 0.114,-5.641 0.34,-8.512 1.641,-20.898 9.688,-43.078 28.047,-61.48 15.547,-15.508 33.984,-23.789 52.07,-27.149 6.524,-1.21 13.016,-1.761 19.301,-1.761 9.527,0 18.59,1.261 26.637,3.402 2.422,0.629 4.762,1.367 6.992,2.149 135.74,48.242 350.31,94.921 635.12,148.14 47.89,8.91 97.93,17.68 150.66,26.04 261.33,41.44 588.52,73.63 1042.07,73.63"/>
    </clipPath>
    <clipPath id="clipPath39807" clipPathUnits="userSpaceOnUse">
      <path inkscape:connector-curvature="0" id="path39809" d="m 1077.05,1204.12 0,-681.6 3388.8,0 0,681.6 -3388.8,0 z"/>
    </clipPath>
    <clipPath id="clipPath39819" clipPathUnits="userSpaceOnUse">
      <path inkscape:connector-curvature="0" id="path39821" d="m 897.5,903.129 c 15.547,-15.508 33.984,-23.789 52.07,-27.149 16.407,-3.05 32.578,-1.91 45.938,1.641 2.422,0.629 4.762,1.367 6.992,2.149 135.74,48.242 350.31,94.921 635.12,148.14 47.89,8.91 97.93,17.68 150.66,26.04 261.33,41.44 588.52,73.63 1042.07,73.63 7.11,0 14.18,0 21.25,-0.06 484.47,-1.07 823.26,-39.06 1092.17,-85.39 27.15,-4.67 53.55,-9.43 79.34,-14.22 231.36,-43.219 416.4,-82.16 550.43,-121.109 30.97,-8.981 59.21,-17.992 84.64,-27.031 10.39,-3.668 22.58,-6.329 35.67,-6.372 12.5,-0.039 25.82,2.274 39.14,8.364 10.27,4.726 20.58,11.679 30.43,21.558 20.04,20.02 28.16,41.762 29.72,61.918 0.75,10.391 -0.23,20.391 -2.18,29.532 -1.06,4.8 -2.43,9.43 -3.95,13.71 -18.32,51.48 -36.4,114.34 -54.73,188.09 -29.92,120.5 -60.42,270.13 -93.43,446.77 -12.31,65.86 -24.26,135.86 -35.35,211.31 -36.53,248.34 -63.79,555.53 -64.38,967.91 0,4.32 0,8.67 0,12.99 0,352.64 19.45,628.85 47.66,857.09 15.35,124.45 33.28,234.64 52.07,335.17 53.2,284.7 99.65,499.27 148.16,634.88 9.34,26.01 5.59,46.01 1.56,61.89 -2.11,8.31 -3.12,10.26 -7.73,19.83 -4.06,8.3 -10,16.01 -17.23,23.28 -9.06,9.02 -19.06,15.54 -29.33,20.08 -13.28,5.78 -27.11,8.24 -40.12,8.3 -12.81,0.06 -24.88,-2.17 -34.84,-5.73 -25.71,-9.1 -54.14,-18.2 -85.39,-27.22 -133.99,-38.89 -318.76,-77.78 -549.73,-120.9 -26.13,-4.9 -52.93,-9.73 -80.43,-14.41 -269.22,-46.35 -608.48,-84.3 -1093.58,-85.24 -6.24,0 -12.49,0 -18.78,0 -454.34,0 -781.88,32.25 -1043.44,73.83 -52.23,8.28 -101.84,16.95 -149.26,25.82 -284.8,53.2 -499.37,99.88 -635.12,148.12 -2.61,0.94 -5.309,1.8 -8.16,2.56 -13.086,3.58 -28.36,5.22 -44.258,2.37 -17.5,-3.09 -35.742,-11.49 -52.774,-28.52 -7.968,-7.93 -14.023,-16.17 -18.554,-24.41 -6.758,-12.39 -10.078,-24.89 -11.055,-36.84 -1.367,-16.17 1.602,-31.41 6.055,-43.91 48.242,-135.7 94.961,-350.15 148.166,-634.88 18.75,-100.15 36.6,-209.85 51.95,-333.72 28.24,-228.51 47.77,-505.15 47.77,-858.51 0,-3.4 0,-6.76 0,-10.16 -0.43,-412.87 -27.65,-720.47 -64.1,-969.1 -11.17,-76.06 -23.2,-146.62 -35.62,-212.97 -32.854,-175.84 -63.244,-324.9 -93.049,-445.18 -18.438,-74.41 -36.68,-137.81 -55.117,-189.68 -1.367,-3.79 -2.5,-7.859 -3.438,-12.171 -1.992,-9.399 -2.812,-19.828 -1.953,-30.61 1.641,-20.898 9.688,-43.078 28.047,-61.48"/>
    </clipPath>
    <linearGradient id="linearGradient39823" spreadMethod="pad" gradientTransform="matrix(3928.93,0,0,-3928.93,867.422,2835.53)" gradientUnits="userSpaceOnUse" y2="0" x2="1" y1="0" x1="0">
      <stop id="stop39825" offset="0" style="stop-opacity:1;stop-color:#ef332f"/>
      <stop id="stop39827" offset="1" style="stop-opacity:1;stop-color:#2a0502"/>
    </linearGradient>
    <clipPath id="clipPath39835" clipPathUnits="userSpaceOnUse">
      <path inkscape:connector-curvature="0" id="path39837" d="m 4694.16,873.398 c -0.11,0 -0.21,0 -0.31,0 -13.09,0.043 -25.28,2.704 -35.67,6.372 -25.43,9.039 -53.67,18.05 -84.64,27.031 -134.03,38.949 -319.07,77.89 -550.43,121.109 -25.79,4.79 -52.19,9.55 -79.34,14.22 -268.91,46.33 -607.7,84.32 -1092.17,85.39 -7.07,0.06 -14.14,0.06 -21.25,0.06 -453.55,0 -780.74,-32.19 -1042.07,-73.63 -52.73,-8.36 -102.77,-17.13 -150.66,-26.04 -284.81,-53.219 -499.38,-99.898 -635.12,-148.14 -2.23,-0.782 -4.57,-1.52 -6.992,-2.149 -8.047,-2.141 -17.11,-3.402 -26.637,-3.402 -6.285,0 -12.777,0.551 -19.301,1.761 -18.086,3.36 -36.523,11.641 -52.07,27.149 -18.359,18.402 -26.406,40.582 -28.047,61.48 -0.226,2.871 -0.34,5.711 -0.34,8.512 0,7.738 0.828,15.199 2.293,22.098 0.938,4.312 2.071,8.381 3.438,12.171 18.437,51.87 36.679,115.27 55.117,189.68 29.805,120.28 60.195,269.34 93.049,445.18 12.42,66.35 24.45,136.91 35.62,212.97 36.45,248.63 63.67,556.23 64.1,969.1 0,3.4 0,6.76 0,10.16 l 0,0 c 0,353.36 -19.53,630 -47.77,858.51 -15.35,123.87 -33.2,233.57 -51.95,333.72 -53.205,284.73 -99.924,499.18 -148.166,634.88 -3.707,10.41 -6.383,22.7 -6.391,35.85 0,2.65 0.106,5.35 0.336,8.06 0.977,11.95 4.297,24.45 11.055,36.84 4.531,8.24 10.586,16.48 18.554,24.41 17.032,17.03 35.274,25.43 52.774,28.52 5.609,1 11.141,1.45 16.527,1.45 9.875,0 19.262,-1.5 27.731,-3.82 2.851,-0.76 5.55,-1.62 8.16,-2.56 135.75,-48.24 350.32,-94.92 635.12,-148.12 47.42,-8.87 97.03,-17.54 149.26,-25.82 261.56,-41.58 589.1,-73.83 1043.44,-73.83 6.29,0 12.54,0 18.78,0 485.1,0.94 824.36,38.89 1093.58,85.24 27.5,4.68 54.3,9.51 80.43,14.41 230.97,43.12 415.74,82.01 549.73,120.9 31.25,9.02 59.68,18.12 85.39,27.22 9.83,3.52 21.71,5.73 34.34,5.73 0.17,0 0.33,0 0.5,0 13.01,-0.06 26.84,-2.52 40.12,-8.3 10.27,-4.54 20.27,-11.06 29.33,-20.08 7.23,-7.27 13.17,-14.98 17.23,-23.28 4.61,-9.57 5.62,-11.52 7.73,-19.83 2.17,-8.56 4.26,-18.31 4.27,-29.56 0,-9.63 -1.52,-20.34 -5.83,-32.33 -48.51,-135.61 -94.96,-350.18 -148.16,-634.88 -18.79,-100.53 -36.72,-210.72 -52.07,-335.17 -28.21,-228.24 -47.66,-504.45 -47.66,-857.09 0,-4.32 0,-8.67 0,-12.99 l 0,0 c 0.59,-412.38 27.85,-719.57 64.38,-967.91 11.09,-75.45 23.04,-145.45 35.35,-211.31 33.01,-176.64 63.51,-326.27 93.43,-446.77 18.33,-73.75 36.41,-136.61 54.73,-188.09 1.52,-4.28 2.89,-8.91 3.95,-13.71 1.51,-7.071 2.43,-14.649 2.43,-22.54 0,-2.3 -0.08,-4.64 -0.25,-6.992 -1.56,-20.156 -9.68,-41.898 -29.72,-61.918 -9.85,-9.879 -20.16,-16.832 -30.43,-21.558 -13.21,-6.043 -26.42,-8.364 -38.83,-8.364 m -2480.35,994.342 0,-458.4 1310.4,0 0,458.4 -1310.4,0 m -865.15,2034.22 0,-1939.2 3096,0 0,1939.2 -3096,0"/>
    </clipPath>
    <clipPath id="clipPath39841" clipPathUnits="userSpaceOnUse">
      <path inkscape:connector-curvature="0" id="path39843" d="m 4694.16,873.398 c -0.11,0 -0.21,0 -0.31,0 -13.09,0.043 -25.28,2.704 -35.67,6.372 -25.43,9.039 -53.67,18.05 -84.64,27.031 -134.03,38.949 -319.07,77.89 -550.43,121.109 -25.79,4.79 -52.19,9.55 -79.34,14.22 -268.91,46.33 -607.7,84.32 -1092.17,85.39 -7.07,0.06 -14.14,0.06 -21.25,0.06 -453.55,0 -780.74,-32.19 -1042.07,-73.63 -52.73,-8.36 -102.77,-17.13 -150.66,-26.04 -284.81,-53.219 -499.38,-99.898 -635.12,-148.14 -2.23,-0.782 -4.57,-1.52 -6.992,-2.149 -8.047,-2.141 -17.11,-3.402 -26.637,-3.402 -6.285,0 -12.777,0.551 -19.301,1.761 -18.086,3.36 -36.523,11.641 -52.07,27.149 -18.359,18.402 -26.406,40.582 -28.047,61.48 -0.226,2.871 -0.34,5.711 -0.34,8.512 0,7.738 0.828,15.199 2.293,22.098 0.938,4.312 2.071,8.381 3.438,12.171 18.437,51.87 36.679,115.27 55.117,189.68 29.805,120.28 60.195,269.34 93.049,445.18 12.42,66.35 24.45,136.91 35.62,212.97 36.45,248.63 63.67,556.23 64.1,969.1 0,3.4 0,6.76 0,10.16 l 0,0 c 0,353.36 -19.53,630 -47.77,858.51 -15.35,123.87 -33.2,233.57 -51.95,333.72 -53.205,284.73 -99.924,499.18 -148.166,634.88 -3.707,10.41 -6.383,22.7 -6.391,35.85 0,2.65 0.106,5.35 0.336,8.06 0.977,11.95 4.297,24.45 11.055,36.84 4.531,8.24 10.586,16.48 18.554,24.41 17.032,17.03 35.274,25.43 52.774,28.52 5.609,1 11.141,1.45 16.527,1.45 9.875,0 19.262,-1.5 27.731,-3.82 2.851,-0.76 5.55,-1.62 8.16,-2.56 135.75,-48.24 350.32,-94.92 635.12,-148.12 47.42,-8.87 97.03,-17.54 149.26,-25.82 261.56,-41.58 589.1,-73.83 1043.44,-73.83 6.29,0 12.54,0 18.78,0 485.1,0.94 824.36,38.89 1093.58,85.24 27.5,4.68 54.3,9.51 80.43,14.41 230.97,43.12 415.74,82.01 549.73,120.9 31.25,9.02 59.68,18.12 85.39,27.22 9.83,3.52 21.71,5.73 34.34,5.73 0.17,0 0.33,0 0.5,0 13.01,-0.06 26.84,-2.52 40.12,-8.3 10.27,-4.54 20.27,-11.06 29.33,-20.08 7.23,-7.27 13.17,-14.98 17.23,-23.28 4.61,-9.57 5.62,-11.52 7.73,-19.83 2.17,-8.56 4.26,-18.31 4.27,-29.56 0,-9.63 -1.52,-20.34 -5.83,-32.33 -48.51,-135.61 -94.96,-350.18 -148.16,-634.88 -18.79,-100.53 -36.72,-210.72 -52.07,-335.17 -28.21,-228.24 -47.66,-504.45 -47.66,-857.09 0,-4.32 0,-8.67 0,-12.99 l 0,0 c 0.59,-412.38 27.85,-719.57 64.38,-967.91 11.09,-75.45 23.04,-145.45 35.35,-211.31 33.01,-176.64 63.51,-326.27 93.43,-446.77 18.33,-73.75 36.41,-136.61 54.73,-188.09 1.52,-4.28 2.89,-8.91 3.95,-13.71 1.51,-7.071 2.43,-14.649 2.43,-22.54 0,-2.3 -0.08,-4.64 -0.25,-6.992 -1.56,-20.156 -9.68,-41.898 -29.72,-61.918 -9.85,-9.879 -20.16,-16.832 -30.43,-21.558 -13.21,-6.043 -26.42,-8.364 -38.83,-8.364 m -2480.35,994.342 0,-458.4 1310.4,0 0,458.4 -1310.4,0 m -865.15,2034.22 0,-1939.2 3096,0 0,1939.2 -3096,0"/>
    </clipPath>
    <clipPath id="clipPath104971" clipPathUnits="userSpaceOnUse">
      <path inkscape:connector-curvature="0" id="path104973" d="m 2213.81,1409.34 1310.4,0 0,458.398 -1310.4,0 0,-458.398 z"/>
    </clipPath>
    <clipPath id="clipPath104983" clipPathUnits="userSpaceOnUse">
      <path inkscape:connector-curvature="0" id="path104985" d="m 0,0 5669.29,0 0,5669.3 L 0,5669.3 0,0 Z"/>
    </clipPath>
    <clipPath id="clipPath105003" clipPathUnits="userSpaceOnUse">
      <path inkscape:connector-curvature="0" id="path105005" d="m 1348,1962 2413,0 0,1940 -2413,0 0,-1940 z"/>
    </clipPath>
    <clipPath id="clipPath105015" clipPathUnits="userSpaceOnUse">
      <path inkscape:connector-curvature="0" id="path105017" d="m 3755,1962 690,0 0,1940 -690,0 0,-1940 z"/>
    </clipPath>
    <clipPath id="clipPath105027" clipPathUnits="userSpaceOnUse">
      <path inkscape:connector-curvature="0" id="path105029" d="m 0,0 5669.29,0 0,5669.3 L 0,5669.3 0,0 Z"/>
    </clipPath>
    <clipPath id="clipPath137714" clipPathUnits="userSpaceOnUse">
      <path inkscape:connector-curvature="0" id="path137716" d="m 0,0 3311.43,0 0,1216.06 L 0,1216.06 0,0 Z"/>
    </clipPath>
  </defs>
  <sodipodi:namedview id="base" pagecolor="#ffffff" bordercolor="#666666" borderopacity="1.0" inkscape:pageopacity="0.0" inkscape:pageshadow="2" inkscape:zoom="2.5492958" inkscape:cx="177.5" inkscape:cy="35.599998" inkscape:document-units="px" inkscape:current-layer="layer1" showgrid="false" units="px" inkscape:window-width="1280" inkscape:window-height="744" inkscape:window-x="-4" inkscape:window-y="-4" inkscape:window-maximized="1"/>
  <metadata id="metadata36957">
    <rdf:RDF>
      <cc:Work rdf:about="">
        <dc:format>image/svg+xml</dc:format>
        <dc:type rdf:resource="http://purl.org/dc/dcmitype/StillImage"/>
        <dc:title/>
      </cc:Work>
    </rdf:RDF>
  </metadata>
  <g inkscape:label="Layer 1" inkscape:groupmode="layer" id="layer1" transform="translate(0,-981.16216)">
    <path inkscape:connector-curvature="0" id="path137718" style="fill:#12283b;fill-opacity:1;fill-rule:nonzero;stroke:none" d="m 31.917125,1051.5239 -12.769,-30.0074 -6.0445,0 -12.7685,30.0074 6.68212,0 2.72413,-6.6821 12.59862,0 2.72413,6.6821 6.853,0 z m -11.9185,-12.4707 -7.9165,0 3.9585,-9.6627 3.958,9.6627 z m 42.045,7.6611 -4.17088,-4.2139 c -2.34137,2.129 -4.42687,3.4889 -7.83162,3.4889 -5.10788,0 -8.64063,-4.2554 -8.64063,-9.3629 l 0,-0.085 c 0,-5.1075 3.61813,-9.2779 8.64063,-9.2779 2.9795,0 5.32037,1.2769 7.61862,3.3628 l 4.17138,-4.81 c -2.767,-2.7246 -6.12938,-4.5968 -11.7475,-4.5968 -9.15088,0 -15.53513,6.9375 -15.53513,15.4073 l 0,0.085 c 0,8.5546 6.51213,15.3222 15.27975,15.3222 5.74613,0 9.15138,-2.0435 12.21538,-5.3198 m 31.83637,0 -4.17137,-4.2139 c -2.34088,2.129 -4.42675,3.4889 -7.832,3.4889 -5.1075,0 -8.64013,-4.2554 -8.64013,-9.3629 l 0,-0.085 c 0,-5.1075 3.61763,-9.2779 8.64013,-9.2779 2.98,0 5.32125,1.2769 7.61913,3.3628 l 4.17137,-4.81 c -2.76713,-2.7247 -6.12938,-4.5968 -11.7475,-4.5968 -9.151,0 -15.53575,6.9375 -15.53575,15.4073 l 0,0.085 c 0,8.5546 6.51225,15.3222 15.28038,15.3222 5.74599,0 9.15037,-2.0435 12.21574,-5.3198 m 36.007375,-10.0879 0,-0.085 c 0,-8.4693 -6.5975,-15.3219 -15.79125,-15.3219 -9.19375,0 -15.876245,6.9375 -15.876245,15.4073 l 0,0.085 c 0,8.4692 6.597495,15.3222 15.791245,15.3222 9.1925,0 15.87625,-6.936 15.87625,-15.4077 m -6.8525,0.085 c 0,5.1073 -3.66125,9.2773 -8.93875,9.2773 -5.2775,0 -9.02375,-4.2553 -9.02375,-9.3628 l 0,-0.085 c 0,-5.1075 3.66,-9.2779 8.93875,-9.2779 5.2775,0 9.02375,4.2559 9.02375,9.3632 l 0,0.086 z m 39.71,14.812 -7.2775,-10.6422 c 3.7875,-1.4037 6.38375,-4.4262 6.38375,-9.2358 l 0,-0.085 c 0,-6.128 -4.21375,-9.8312 -11.23625,-9.8312 l -13.62,0 0,29.7945 6.55375,0 0,-9.5337 5.15125,0 6.38375,9.5337 7.66125,0 z m -7.53375,-19.5362 c 0,2.5098 -1.83,4.2139 -5.0225,4.2139 l -6.64,0 0,-8.5557 6.5125,0 c 3.1925,0 5.15,1.4468 5.15,4.2563 l 0,0.085"/>
    <path inkscape:connector-curvature="0" id="path137722" style="fill:#e29c16;fill-opacity:1;fill-rule:nonzero;stroke:none" d="m 154.50238,1007.1612 c 0,0.3925 1.6675,0.3593 3.33499,0.3593 6.27875,0 12.525,-0.5552 18.44376,-1.9615 7.88125,-1.8647 10.0075,-4.6435 14.42125,-7.12933 8.99374,-5.06838 20.37375,-4.186 20.37375,-5.03613 0,-0.229 -0.16375,-0.2945 -3.335,-1.11237 -0.295,-1.20888 -1.865,-1.99363 -3.435,-1.99363 -3.69375,0 -9.74625,4.28375 -15.17375,4.28375 -0.58875,0 -1.145,-0.066 -1.73375,-0.16412 -2.19,-4.08738 -7.19375,-7.71775 -13.37375,-8.50288 -3.565,-0.4575 -6.115,-0.88237 -8.1425,-1.24175 -7.1625,-1.30862 -9.02625,-3.17237 -9.84375,-3.17237 -0.16375,0 -0.22875,0.16362 -0.22875,0.2945 0,1.373 2.4525,5.23237 6.34375,9.582 2.55125,2.84425 6.76875,6.96437 6.76875,8.92673 0,1.0791 -2.38625,2.3878 -6.9325,4.3169 -5.29625,2.2569 -7.4875,2.2236 -7.4875,2.5509"/>
    <path inkscape:connector-curvature="0" id="path137724" style="fill:#12283b;fill-opacity:1;fill-rule:nonzero;stroke:none" d="m 203.66113,1051.5239 0,-29.7945 -6.555,0 0,11.7915 -14.91001,0 0,-11.7915 -6.55374,0 0,29.7945 6.55374,0 0,-11.9605 14.91001,0 0,11.9605 6.555,0 z m 38.77499,-14.8975 0,-0.085 c 0,-8.4692 -6.5975,-15.3219 -15.79124,-15.3219 -9.1925,0 -15.87375,6.9375 -15.87375,15.4073 l 0,0.085 c 0,8.4692 6.59625,15.3222 15.79125,15.3222 9.19125,0 15.87374,-6.936 15.87374,-15.4077 m -6.85374,0.085 c 0,5.1074 -3.65875,9.2774 -8.9375,9.2774 -5.27626,0 -9.02376,-4.2554 -9.02376,-9.3629 l 0,-0.085 c 0,-5.1075 3.66251,-9.2779 8.94126,-9.2779 5.27499,0 9.02,4.2559 9.02,9.3633 l 0,0.085 z m 35.2425,-8.938 0,-6.0445 -24.6875,0 0,6.0445 9.0675,0 0,23.75 6.555,0 0,-23.75 9.065,0 z m 28.98374,23.75 0,-5.8325 -16.17374,0 0,-6.2549 14.0475,0 0,-5.8326 -14.0475,0 0,-6.0429 15.96125,0 0,-5.8316 -22.47251,0 0,29.7945 22.685,0 z m 27.1075,0 0,-5.9595 -13.445,0 0,-23.835 -6.5525,0 0,29.7945 19.9975,0 z m 27.74875,-8.811 0,-0.085 c 0,-5.1929 -3.40375,-7.3633 -9.44875,-8.938 -5.14875,-1.3184 -6.4275,-1.958 -6.4275,-3.9155 l 0,-0.084 c 0,-1.4473 1.32,-2.5966 3.8325,-2.5966 2.51,0 5.1075,1.1063 7.74375,2.9365 l 3.40625,-4.937 c -3.0225,-2.4259 -6.72375,-3.7882 -11.06625,-3.7882 -6.085,0 -10.4275,3.5758 -10.4275,8.98 l 0,0.085 c 0,5.9175 3.87375,7.5753 9.875,9.1085 4.98125,1.2769 6.00125,2.1289 6.00125,3.789 l 0,0.083 c 0,1.7482 -1.61625,2.8102 -4.29875,2.8102 -3.40375,0 -6.21375,-1.4039 -8.895,-3.6183 l -3.87375,4.6411 c 3.57375,3.191 8.13,4.7657 12.64125,4.7657 6.42625,0 10.9375,-3.3203 10.9375,-9.2358"/>
  </g>
</svg>