<svg width="1058" height="563" viewBox="0 28 1058 563" fill="none" xmlns="http://www.w3.org/2000/svg">
<!-- ONE CO pair per 1058-unit tile (period 529 when layered with a half-tile x-offset). -->
<!-- Used twice as stacked hero mask layers so alternate columns can roll in opposite directions. -->
<path d="M103.544 478.665C85.1954 478.665 68.1727 474.084 52.4889 464.923C36.8051 455.762 24.309 440.896 14.9752 420.309C5.6669 399.74 1 372.344 1 338.12V168.862C1 134.656 5.6669 107.26 14.9752 86.6907C24.309 66.1214 36.8051 51.2385 52.4889 42.0771C68.1727 32.9157 85.3484 28.335 103.991 28.335C124.711 28.335 142.983 33.1263 158.82 42.6914C174.644 52.274 187.089 65.6124 196.117 82.7067C205.145 99.8185 209.659 120.405 209.659 144.432C209.659 160.315 207.287 170.811 202.544 175.9C197.813 180.99 190.558 183.535 180.79 183.535C172.808 183.535 166.076 181.604 160.593 177.726C155.11 173.864 152.228 167.441 151.947 158.49C151.947 153.594 151.412 147.784 150.392 141.062C149.346 134.341 147.344 127.724 144.399 121.213C141.428 114.701 136.914 109.191 130.857 104.715C124.788 100.24 116.423 97.9934 105.763 97.9934C90.6785 97.9934 79.1387 103.803 71.1438 115.404C63.1489 127.022 59.1578 144.836 59.1578 168.863V338.12C59.1578 362.568 63.2254 380.505 71.3606 391.895C79.4958 403.303 91.265 409.007 106.656 409.007C116.716 409.007 124.711 406.778 130.628 402.285C136.544 397.81 140.905 392.211 143.736 385.489C146.541 378.767 148.454 371.73 149.499 364.411C150.532 357.075 151.335 350.142 151.947 343.631C152.534 333.855 155.492 327.239 160.822 323.764C166.152 320.306 172.655 318.569 180.357 318.569C190.405 318.569 197.813 321.237 202.544 326.519C207.287 331.82 209.659 342.209 209.659 357.689C209.659 382.119 205.145 403.514 196.117 421.836C187.089 440.177 174.581 454.235 158.604 464.01C142.614 473.786 124.265 478.665 103.544 478.665Z" stroke="#507335" stroke-width="2" stroke-miterlimit="10"/>
<path d="M103.544 1041.67C85.1954 1041.67 68.1727 1037.08 52.4889 1027.92C36.8051 1018.76 24.309 1003.9 14.9752 983.309C5.6669 962.74 1 935.344 1 901.12V731.862C1 697.656 5.6669 670.26 14.9752 649.691C24.309 629.121 36.8051 614.238 52.4889 605.077C68.1727 595.916 85.3484 591.335 103.991 591.335C124.711 591.335 142.983 596.126 158.82 605.691C174.644 615.274 187.089 628.612 196.117 645.707C205.145 662.818 209.659 683.405 209.659 707.432C209.659 723.315 207.287 733.811 202.544 738.9C197.813 743.99 190.558 746.535 180.79 746.535C172.808 746.535 166.076 744.604 160.593 740.726C155.11 736.864 152.228 730.441 151.947 721.49C151.947 716.594 151.412 710.784 150.392 704.062C149.346 697.341 147.344 690.724 144.399 684.213C141.428 677.701 136.914 672.191 130.857 667.715C124.788 663.24 116.423 660.993 105.763 660.993C90.6785 660.993 79.1387 666.803 71.1438 678.404C63.1489 690.022 59.1578 707.836 59.1578 731.863V901.12C59.1578 925.568 63.2254 943.505 71.3606 954.895C79.4958 966.303 91.265 972.007 106.656 972.007C116.716 972.007 124.711 969.778 130.628 965.285C136.544 960.81 140.905 955.211 143.736 948.489C146.541 941.767 148.454 934.73 149.499 927.411C150.532 920.075 151.335 913.142 151.947 906.631C152.534 896.855 155.492 890.239 160.822 886.764C166.152 883.306 172.655 881.569 180.357 881.569C190.405 881.569 197.813 884.237 202.544 889.519C207.287 894.82 209.659 905.209 209.659 920.689C209.659 945.119 205.145 966.514 196.117 984.836C187.089 1003.18 174.581 1017.23 158.604 1027.01C142.614 1036.79 124.265 1041.67 103.544 1041.67Z" stroke="#507335" stroke-width="2" stroke-miterlimit="10"/>
<path d="M369.317 28.6652C349.795 28.6652 332.173 24.0845 316.489 14.9231C300.805 5.76167 288.309 -9.10362 278.975 -29.6905C269.654 -50.2598 265 -77.6563 265 -111.88V-281.138C265 -315.344 269.654 -342.74 278.975 -363.309C288.309 -383.879 300.805 -398.762 316.489 -407.923C332.173 -417.084 349.795 -421.665 369.317 -421.665C388.851 -421.665 406.537 -417.084 422.374 -407.923C438.198 -398.762 450.707 -383.879 459.888 -363.309C469.056 -342.74 473.646 -315.344 473.646 -281.138V-196.509V-111.88C473.646 -77.6563 469.056 -50.2597 459.888 -29.6905C450.707 -9.10372 438.198 5.76167 422.374 14.9231C406.537 24.0845 388.851 28.6652 369.317 28.6652ZM369.317 -40.993C383.815 -40.993 395.214 -46.6969 403.502 -58.1048C411.79 -69.4951 415.935 -87.4318 415.935 -111.88V-281.137C415.935 -305.568 411.79 -323.487 403.502 -334.895C395.214 -346.303 383.815 -352.007 369.317 -352.007C354.819 -352.007 343.496 -346.303 335.361 -334.895C327.213 -323.487 323.145 -305.568 323.145 -281.137V-111.88C323.145 -87.4318 327.213 -69.4951 335.361 -58.1048C343.496 -46.6969 354.819 -40.993 369.317 -40.993Z" stroke="#507335" stroke-width="2" stroke-miterlimit="10"/>
<path d="M369.317 591.665C349.795 591.665 332.173 587.084 316.489 577.923C300.805 568.762 288.309 553.896 278.975 533.309C269.654 512.74 265 485.344 265 451.12V281.862C265 247.656 269.654 220.26 278.975 199.691C288.309 179.121 300.805 164.238 316.489 155.077C332.173 145.916 349.795 141.335 369.317 141.335C388.851 141.335 406.537 145.916 422.374 155.077C438.198 164.238 450.707 179.121 459.888 199.691C469.056 220.26 473.646 247.656 473.646 281.862V366.491V451.12C473.646 485.344 469.056 512.74 459.888 533.309C450.707 553.896 438.198 568.762 422.374 577.923C406.537 587.084 388.851 591.665 369.317 591.665ZM369.317 522.007C383.815 522.007 395.214 516.303 403.502 504.895C411.79 493.505 415.935 475.568 415.935 451.12V281.863C415.935 257.432 411.79 239.513 403.502 228.105C395.214 216.697 383.815 210.993 369.317 210.993C354.819 210.993 343.496 216.697 335.361 228.105C327.213 239.513 323.145 257.432 323.145 281.863V451.12C323.145 475.568 327.213 493.505 335.361 504.895C343.496 516.303 354.819 522.007 369.317 522.007Z" stroke="#507335" stroke-width="2" stroke-miterlimit="10"/>
</svg>
