<svg width="529" height="563" viewBox="0 28 529 563" fill="none" xmlns="http://www.w3.org/2000/svg">
<!-- "C" only, split out of co-pattern-col.svg so the C and O columns can
     roll independently. Tile is exactly half of the original 1058-unit
     CO tile (native repeat period is 529), so this and co-pattern-o.svg
     tile at the SAME size and interleave correctly with no offset needed
     between the two mask layers — see .hero-pattern in home.css. -->
<path d="M103.544 478.665C85.1954 478.665 68.1727 474.084 52.4889 464.923C36.8051 455.762 24.309 440.896 14.9752 420.309C5.6669 399.74 1 372.344 1 338.12V168.862C1 134.656 5.6669 107.26 14.9752 86.6907C24.309 66.1214 36.8051 51.2385 52.4889 42.0771C68.1727 32.9157 85.3484 28.335 103.991 28.335C124.711 28.335 142.983 33.1263 158.82 42.6914C174.644 52.274 187.089 65.6124 196.117 82.7067C205.145 99.8185 209.659 120.405 209.659 144.432C209.659 160.315 207.287 170.811 202.544 175.9C197.813 180.99 190.558 183.535 180.79 183.535C172.808 183.535 166.076 181.604 160.593 177.726C155.11 173.864 152.228 167.441 151.947 158.49C151.947 153.594 151.412 147.784 150.392 141.062C149.346 134.341 147.344 127.724 144.399 121.213C141.428 114.701 136.914 109.191 130.857 104.715C124.788 100.24 116.423 97.9934 105.763 97.9934C90.6785 97.9934 79.1387 103.803 71.1438 115.404C63.1489 127.022 59.1578 144.836 59.1578 168.863V338.12C59.1578 362.568 63.2254 380.505 71.3606 391.895C79.4958 403.303 91.265 409.007 106.656 409.007C116.716 409.007 124.711 406.778 130.628 402.285C136.544 397.81 140.905 392.211 143.736 385.489C146.541 378.767 148.454 371.73 149.499 364.411C150.532 357.075 151.335 350.142 151.947 343.631C152.534 333.855 155.492 327.239 160.822 323.764C166.152 320.306 172.655 318.569 180.357 318.569C190.405 318.569 197.813 321.237 202.544 326.519C207.287 331.82 209.659 342.209 209.659 357.689C209.659 382.119 205.145 403.514 196.117 421.836C187.089 440.177 174.581 454.235 158.604 464.01C142.614 473.786 124.265 478.665 103.544 478.665Z" stroke="#507335" stroke-width="2" stroke-miterlimit="10"/>
<path d="M103.544 1041.67C85.1954 1041.67 68.1727 1037.08 52.4889 1027.92C36.8051 1018.76 24.309 1003.9 14.9752 983.309C5.6669 962.74 1 935.344 1 901.12V731.862C1 697.656 5.6669 670.26 14.9752 649.691C24.309 629.121 36.8051 614.238 52.4889 605.077C68.1727 595.916 85.3484 591.335 103.991 591.335C124.711 591.335 142.983 596.126 158.82 605.691C174.644 615.274 187.089 628.612 196.117 645.707C205.145 662.818 209.659 683.405 209.659 707.432C209.659 723.315 207.287 733.811 202.544 738.9C197.813 743.99 190.558 746.535 180.79 746.535C172.808 746.535 166.076 744.604 160.593 740.726C155.11 736.864 152.228 730.441 151.947 721.49C151.947 716.594 151.412 710.784 150.392 704.062C149.346 697.341 147.344 690.724 144.399 684.213C141.428 677.701 136.914 672.191 130.857 667.715C124.788 663.24 116.423 660.993 105.763 660.993C90.6785 660.993 79.1387 666.803 71.1438 678.404C63.1489 690.022 59.1578 707.836 59.1578 731.863V901.12C59.1578 925.568 63.2254 943.505 71.3606 954.895C79.4958 966.303 91.265 972.007 106.656 972.007C116.716 972.007 124.711 969.778 130.628 965.285C136.544 960.81 140.905 955.211 143.736 948.489C146.541 941.767 148.454 934.73 149.499 927.411C150.532 920.075 151.335 913.142 151.947 906.631C152.534 896.855 155.492 890.239 160.822 886.764C166.152 883.306 172.655 881.569 180.357 881.569C190.405 881.569 197.813 884.237 202.544 889.519C207.287 894.82 209.659 905.209 209.659 920.689C209.659 945.119 205.145 966.514 196.117 984.836C187.089 1003.18 174.581 1017.23 158.604 1027.01C142.614 1036.79 124.265 1041.67 103.544 1041.67Z" stroke="#507335" stroke-width="2" stroke-miterlimit="10"/>
</svg>
