<svg width="529" height="563" viewBox="0 28 529 563" fill="none" xmlns="http://www.w3.org/2000/svg">
<!-- "O" only, split out of co-pattern-col.svg — see co-pattern-c.svg for
     why the tile is 529 wide (half the original CO pair) and how the
     two files interleave without any mask-position offset between them. -->
<path d="M369.317 28.6652C349.795 28.6652 332.173 24.0845 316.489 14.9231C300.805 5.76167 288.309 -9.10362 278.975 -29.6905C269.654 -50.2598 265 -77.6563 265 -111.88V-281.138C265 -315.344 269.654 -342.74 278.975 -363.309C288.309 -383.879 300.805 -398.762 316.489 -407.923C332.173 -417.084 349.795 -421.665 369.317 -421.665C388.851 -421.665 406.537 -417.084 422.374 -407.923C438.198 -398.762 450.707 -383.879 459.888 -363.309C469.056 -342.74 473.646 -315.344 473.646 -281.138V-196.509V-111.88C473.646 -77.6563 469.056 -50.2597 459.888 -29.6905C450.707 -9.10372 438.198 5.76167 422.374 14.9231C406.537 24.0845 388.851 28.6652 369.317 28.6652ZM369.317 -40.993C383.815 -40.993 395.214 -46.6969 403.502 -58.1048C411.79 -69.4951 415.935 -87.4318 415.935 -111.88V-281.137C415.935 -305.568 411.79 -323.487 403.502 -334.895C395.214 -346.303 383.815 -352.007 369.317 -352.007C354.819 -352.007 343.496 -346.303 335.361 -334.895C327.213 -323.487 323.145 -305.568 323.145 -281.137V-111.88C323.145 -87.4318 327.213 -69.4951 335.361 -58.1048C343.496 -46.6969 354.819 -40.993 369.317 -40.993Z" stroke="#507335" stroke-width="2" stroke-miterlimit="10"/>
<path d="M369.317 591.665C349.795 591.665 332.173 587.084 316.489 577.923C300.805 568.762 288.309 553.896 278.975 533.309C269.654 512.74 265 485.344 265 451.12V281.862C265 247.656 269.654 220.26 278.975 199.691C288.309 179.121 300.805 164.238 316.489 155.077C332.173 145.916 349.795 141.335 369.317 141.335C388.851 141.335 406.537 145.916 422.374 155.077C438.198 164.238 450.707 179.121 459.888 199.691C469.056 220.26 473.646 247.656 473.646 281.862V366.491V451.12C473.646 485.344 469.056 512.74 459.888 533.309C450.707 553.896 438.198 568.762 422.374 577.923C406.537 587.084 388.851 591.665 369.317 591.665ZM369.317 522.007C383.815 522.007 395.214 516.303 403.502 504.895C411.79 493.505 415.935 475.568 415.935 451.12V281.863C415.935 257.432 411.79 239.513 403.502 228.105C395.214 216.697 383.815 210.993 369.317 210.993C354.819 210.993 343.496 216.697 335.361 228.105C327.213 239.513 323.145 257.432 323.145 281.863V451.12C323.145 475.568 327.213 493.505 335.361 504.895C343.496 516.303 354.819 522.007 369.317 522.007Z" stroke="#507335" stroke-width="2" stroke-miterlimit="10"/>
</svg>
