<svg width="254" height="113" viewBox="0 0 254 113" fill="none" xmlns="http://www.w3.org/2000/svg">
<path d="M82.1805 52.5441C81.257 52.5441 80.3996 52.3418 79.6121 51.9389C78.8229 51.5343 78.4282 50.9275 78.4282 50.12V14.0986C78.4282 12.7125 78.8228 11.7408 79.6121 11.1837C80.3997 10.6249 81.257 10.3464 82.1805 10.3464C83.104 10.3464 83.8832 10.4426 84.5183 10.6349C85.1534 10.8272 85.7503 11.2119 86.3074 11.7889C86.8645 12.3659 87.4514 13.2132 88.0682 14.3291L95.168 27.2603L102.211 14.3291C102.905 13.2132 103.511 12.366 104.03 11.7889C104.549 11.2118 105.136 10.8272 105.79 10.6349C106.444 10.4426 107.214 10.3464 108.101 10.3464C109.063 10.3464 109.928 10.625 110.697 11.1837C111.467 11.7408 111.851 12.7124 111.851 14.0986V50.12C111.851 50.9275 111.457 51.5343 110.667 51.9389C109.878 52.3418 109.023 52.5441 108.101 52.5441C107.176 52.5441 106.32 52.3418 105.531 51.9389C104.742 51.5343 104.347 50.9275 104.347 50.12V25.3552L97.6516 37.3629C97.3051 37.9018 96.9004 38.2964 96.4378 38.5451C95.9769 38.7971 95.5159 38.9215 95.0533 38.9215C94.6305 38.9215 94.1962 38.8054 93.7551 38.575C93.3107 38.3445 92.9177 37.94 92.5711 37.363L85.9322 24.9507V50.1201C85.9322 50.9276 85.5475 51.5344 84.7782 51.939C84.0072 52.3419 83.1422 52.5441 82.1805 52.5441Z" fill="#2D3E98"/>
<path d="M122.589 52.5441C121.627 52.5441 120.75 52.3418 119.963 51.9389C119.173 51.5343 118.779 50.9275 118.779 50.12V12.7125C118.779 12.0592 119.047 11.5005 119.588 11.0395C120.125 10.5769 120.818 10.3464 121.665 10.3464H133.211C135.673 10.3464 137.896 10.7692 139.878 11.6165C141.859 12.4638 143.428 13.8383 144.582 15.7434C145.737 17.6485 146.314 20.1787 146.314 23.334V23.6805C146.314 26.8375 145.717 29.3776 144.525 31.301C143.331 33.226 141.707 34.6204 139.647 35.486C137.588 36.3516 135.29 36.7843 132.75 36.7843H126.283V50.1201C126.283 50.9276 125.899 51.5344 125.129 51.939C124.358 52.3419 123.513 52.5441 122.589 52.5441ZM126.283 30.8965H132.75C134.633 30.8965 136.116 30.3576 137.193 29.2799C138.271 28.2038 138.81 26.5292 138.81 24.2576V23.6226C138.81 21.3527 138.271 19.6698 137.193 18.5721C136.116 17.4761 134.633 16.9273 132.75 16.9273H126.283V30.8965Z" fill="#2D3E98"/>
<path d="M150.529 52.5441C149.836 52.5441 149.123 52.4098 148.392 52.1412C147.662 51.8709 147.046 51.5062 146.545 51.0436C146.044 50.5827 145.795 50.0438 145.795 49.427C145.795 49.3126 145.815 49.1203 145.852 48.85L156.994 12.5401C157.263 11.6928 157.87 11.0595 158.813 10.635C159.756 10.2122 160.764 10 161.842 10C162.96 10 163.979 10.2122 164.903 10.635C165.827 11.0595 166.422 11.6928 166.692 12.5401L177.833 48.85C177.91 49.1203 177.949 49.3126 177.949 49.427C177.949 50.004 177.69 50.5346 177.169 51.0154C176.65 51.4962 176.025 51.871 175.294 52.1412C174.563 52.4098 173.85 52.5441 173.157 52.5441C172.542 52.5441 172.013 52.4396 171.57 52.2274C171.127 52.0152 170.829 51.6205 170.676 51.0435L168.481 43.3667H155.205L153.068 51.0435C152.915 51.6205 152.607 52.0151 152.146 52.2274C151.683 52.4396 151.144 52.5441 150.529 52.5441ZM156.821 37.4773H166.866L161.842 19.7559L156.821 37.4773Z" fill="#2D3E98"/>
<path d="M194.748 52.8907C192.36 52.8907 190.148 52.4579 188.109 51.5924C186.068 50.7269 184.443 49.3225 183.231 47.3776C182.017 45.4344 181.412 42.8461 181.412 39.6129V23.6225C181.412 20.3909 182.017 17.8027 183.231 15.8595C184.443 13.9163 186.068 12.5102 188.109 11.6447C190.148 10.7792 192.38 10.3464 194.804 10.3464C197.497 10.3464 199.875 10.7991 201.934 11.7027C203.993 12.608 205.608 13.8681 206.782 15.4831C207.956 17.0997 208.543 19.0446 208.543 21.3145C208.543 22.815 208.235 23.8066 207.621 24.2874C207.004 24.7682 206.063 25.0087 204.793 25.0087C203.751 25.0087 202.876 24.8263 202.166 24.4599C201.453 24.0951 201.077 23.4883 201.039 22.6427C201.039 22.1801 200.972 21.6313 200.836 20.9962C200.702 20.3612 200.442 19.7361 200.057 19.1209C199.672 18.5057 199.085 17.9851 198.296 17.5623C197.507 17.1395 196.421 16.9273 195.036 16.9273C193.073 16.9273 191.571 17.4761 190.533 18.5721C189.493 19.6697 188.974 21.3527 188.974 23.6226V39.613C188.974 41.9227 189.502 43.6172 190.563 44.6933C191.621 45.771 193.149 46.3099 195.151 46.3099C196.459 46.3099 197.497 46.0993 198.268 45.6749C199.037 45.2521 199.606 44.7232 199.971 44.0881C200.335 43.453 200.588 42.7882 200.722 42.0968C200.856 41.4037 200.962 40.7488 201.039 40.1337C201.115 39.2102 201.501 38.5851 202.193 38.2568C202.886 37.9302 203.733 37.766 204.733 37.766C206.043 37.766 207.004 38.018 207.621 38.5171C208.235 39.0178 208.543 39.9994 208.543 41.4618C208.543 43.7698 207.956 45.791 206.782 47.522C205.608 49.2547 203.983 50.5828 201.904 51.5063C199.826 52.4298 197.441 52.8907 194.748 52.8907Z" fill="#2D3E98"/>
<path d="M225.343 52.5441C224.381 52.5441 223.514 52.3418 222.744 51.9389C221.973 51.5343 221.59 50.9275 221.59 50.12V17.0997H213.104C212.373 17.0997 211.796 16.7532 211.372 16.0618C210.947 15.3687 210.738 14.5795 210.738 13.6941C210.738 12.8866 210.929 12.1272 211.315 11.4143C211.698 10.703 212.297 10.3465 213.104 10.3465H237.523C238.368 10.3465 238.975 10.703 239.34 11.4143C239.706 12.1273 239.89 12.8867 239.89 13.6941C239.89 14.5795 239.688 15.3687 239.283 16.0618C238.879 16.7532 238.292 17.0997 237.522 17.0997H229.095V50.12C229.095 50.9275 228.698 51.5343 227.911 51.9389C227.121 52.3418 226.266 52.5441 225.343 52.5441Z" fill="#2D3E98"/>
<path d="M23.645 71.1609C21.259 71.1609 19.0455 70.7281 17.0061 69.8626C14.9667 68.9971 13.3418 67.5927 12.1281 65.6478C10.9177 63.7045 10.3109 61.1163 10.3109 57.8831V41.8927C10.3109 38.6612 10.9177 36.0729 12.1281 34.1297C13.3418 32.1865 14.9667 30.7804 17.0061 29.9149C19.0455 29.0494 21.2789 28.6166 23.703 28.6166C26.3974 28.6166 28.7734 29.0693 30.8327 29.9729C32.8904 30.8782 34.5086 32.1383 35.6825 33.7533C36.8564 35.3699 37.4434 37.3148 37.4434 39.5847C37.4434 41.0852 37.135 42.0768 36.5182 42.5576C35.9031 43.0384 34.9596 43.2789 33.6895 43.2789C32.6516 43.2789 31.7761 43.0965 31.0631 42.7301C30.3501 42.3653 29.9754 41.7585 29.9389 40.9129C29.9389 40.4503 29.8693 39.9015 29.7366 39.2664C29.6006 38.6314 29.3403 38.0063 28.9573 37.3911C28.571 36.776 27.984 36.2553 27.1964 35.8325C26.4072 35.4097 25.3195 35.1975 23.9333 35.1975C21.9718 35.1975 20.4713 35.7463 19.4317 36.8423C18.3921 37.9399 17.8731 39.6229 17.8731 41.8928V57.8832C17.8731 60.1929 18.402 61.8874 19.4599 62.9635C20.5177 64.0412 22.0481 64.5801 24.0494 64.5801C25.3576 64.5801 26.3972 64.3695 27.1666 63.9451C27.9359 63.5223 28.503 62.9934 28.8711 62.3583C29.2359 61.7233 29.4846 61.0584 29.6205 60.367C29.7548 59.6739 29.8593 59.019 29.9388 58.4039C30.0151 57.4804 30.3997 56.8553 31.0928 56.527C31.7859 56.2004 32.6315 56.0362 33.633 56.0362C34.9396 56.0362 35.9029 56.2882 36.518 56.7873C37.1348 57.288 37.4432 58.2696 37.4432 59.732C37.4432 62.04 36.8562 64.0612 35.6823 65.7922C34.5084 67.5249 32.8818 68.853 30.8043 69.7765C28.7251 70.7 26.3393 71.1609 23.645 71.1609Z" fill="#2D3E98"/>
<path d="M57.3816 76.5856C54.8431 76.5856 52.5517 76.1528 50.5122 75.2873C48.4727 74.4218 46.8479 73.0174 45.6342 71.0725C44.4222 69.1293 43.817 66.541 43.817 63.3078V47.3174C43.817 44.0858 44.4222 41.4976 45.6342 39.5544C46.8479 37.6112 48.4728 36.2051 50.5122 35.3396C52.5516 34.4741 54.8431 34.0413 57.3816 34.0413C59.9218 34.0413 62.2215 34.4741 64.2808 35.3396C66.3385 36.2051 67.965 37.6111 69.1588 39.5544C70.3509 41.4976 70.9478 44.0859 70.9478 47.3174V63.3078C70.9478 66.541 70.3509 69.1293 69.1588 71.0725C67.965 73.0174 66.3384 74.4218 64.2808 75.2873C62.2215 76.1528 59.9218 76.5856 57.3816 76.5856ZM57.3816 70.0048C59.2668 70.0048 60.7491 69.4659 61.8269 68.3882C62.9046 67.3121 63.4435 65.6176 63.4435 63.3079V47.3175C63.4435 45.0095 62.9046 43.3166 61.8269 42.2389C60.7492 41.1612 59.2669 40.6223 57.3816 40.6223C55.4963 40.6223 54.024 41.1612 52.9662 42.2389C51.9067 43.3166 51.3778 45.0095 51.3778 47.3175V63.3079C51.3778 65.6176 51.9067 67.3121 52.9662 68.3882C54.024 69.4659 55.4964 70.0048 57.3816 70.0048Z" fill="#2D3E98"/>
<path d="M91.3014 102.497C88.9138 102.497 86.7019 102.064 84.6625 101.198C82.6231 100.333 80.9982 98.9284 79.7845 96.9835C78.5725 95.0403 77.9673 92.452 77.9673 89.2188V73.2284C77.9673 69.9968 78.5725 67.4086 79.7845 65.4654C80.9982 63.5222 82.6231 62.1161 84.6625 61.2506C86.7019 60.3851 88.9337 59.9523 91.3578 59.9523C94.0522 59.9523 96.4282 60.405 98.4875 61.3086C100.547 62.2139 102.163 63.474 103.337 65.089C104.511 66.7056 105.098 68.6505 105.098 70.9204C105.098 72.4209 104.79 73.4125 104.175 73.8933C103.558 74.3741 102.616 74.6146 101.346 74.6146C100.306 74.6146 99.431 74.4322 98.7197 74.0658C98.0067 73.701 97.6319 73.0942 97.5938 72.2486C97.5938 71.786 97.5258 71.2372 97.3915 70.6021C97.2572 69.967 96.9952 69.342 96.6122 68.7268C96.2259 68.1117 95.6389 67.591 94.8513 67.1682C94.0621 66.7454 92.9761 66.5332 91.59 66.5332C89.6269 66.5332 88.1262 67.082 87.0866 68.178C86.0487 69.2756 85.528 70.9586 85.528 73.2285V89.2189C85.528 91.5286 86.0569 93.2231 87.1164 94.2992C88.1742 95.3769 89.703 95.9158 91.7059 95.9158C93.0125 95.9158 94.0522 95.7052 94.8232 95.2808C95.5925 94.858 96.1595 94.3291 96.5259 93.694C96.8907 93.059 97.141 92.3941 97.277 91.7027C97.4096 91.0096 97.5159 90.3547 97.5938 89.7396C97.6701 88.8161 98.0563 88.191 98.7477 87.8627C99.4408 87.5361 100.288 87.3719 101.288 87.3719C102.596 87.3719 103.558 87.6239 104.175 88.123C104.79 88.6237 105.098 89.6053 105.098 91.0677C105.098 93.3757 104.511 95.3969 103.337 97.1279C102.163 98.8606 100.537 100.189 98.4592 101.112C96.3817 102.036 93.9941 102.497 91.3014 102.497Z" fill="#2D3E98"/>
<path d="M115.685 102.15C114.763 102.15 113.904 101.948 113.117 101.545C112.327 101.14 111.934 100.533 111.934 99.726V62.3184C111.934 61.4728 112.327 60.8659 113.117 60.5012C113.904 60.1348 114.763 59.9524 115.685 59.9524C116.647 59.9524 117.512 60.1348 118.283 60.5012C119.054 60.866 119.439 61.4728 119.439 62.3184V78.0203L131.964 61.0484C132.465 60.3189 133.138 59.9524 133.985 59.9524C134.64 59.9524 135.303 60.1447 135.976 60.5294C136.649 60.9141 137.218 61.3949 137.681 61.9719C138.142 62.5489 138.372 63.1657 138.372 63.819C138.372 64.013 138.334 64.2435 138.258 64.5121C138.18 64.7824 138.046 65.0327 137.853 65.2632L127.577 78.1944L140.161 97.3599C140.43 97.7827 140.566 98.2254 140.566 98.6864C140.566 99.3032 140.344 99.8984 139.903 100.477C139.458 101.054 138.891 101.525 138.198 101.891C137.507 102.256 136.794 102.439 136.063 102.439C135.524 102.439 135.035 102.324 134.59 102.092C134.149 101.862 133.754 101.497 133.408 100.996L122.556 84.5431L119.439 88.4694V99.726C119.439 100.533 119.054 101.14 118.283 101.545C117.512 101.948 116.647 102.15 115.685 102.15Z" fill="#2D3E98"/>
<path d="M155.518 102.15C154.555 102.15 153.688 101.948 152.918 101.545C152.149 101.14 151.764 100.533 151.764 99.726V66.7057H143.278C142.547 66.7057 141.97 66.3592 141.547 65.6678C141.123 64.9747 140.912 64.1855 140.912 63.3001C140.912 62.4926 141.103 61.7332 141.489 61.0203C141.872 60.309 142.471 59.9525 143.278 59.9525H167.698C168.544 59.9525 169.151 60.309 169.516 61.0203C169.88 61.7333 170.064 62.4927 170.064 63.3001C170.064 64.1855 169.862 64.9747 169.459 65.6678C169.055 66.3592 168.468 66.7057 167.698 66.7057H159.269V99.726C159.269 100.533 158.874 101.14 158.085 101.545C157.296 101.948 156.44 102.15 155.518 102.15Z" fill="#2D3E98"/>
<path d="M172.316 102.15C171.623 102.15 170.91 102.016 170.179 101.747C169.449 101.477 168.833 101.112 168.332 100.65C167.831 100.189 167.582 99.6498 167.582 99.033C167.582 98.9186 167.602 98.7263 167.639 98.456L178.781 62.1461C179.05 61.2988 179.656 60.6655 180.6 60.241C181.543 59.8182 182.551 59.606 183.629 59.606C184.747 59.606 185.766 59.8182 186.69 60.241C187.613 60.6655 188.209 61.2988 188.479 62.1461L199.619 98.456C199.697 98.7263 199.736 98.9186 199.736 99.033C199.736 99.61 199.477 100.141 198.956 100.621C198.437 101.102 197.812 101.477 197.081 101.747C196.35 102.016 195.637 102.15 194.944 102.15C194.329 102.15 193.8 102.046 193.357 101.833C192.914 101.621 192.616 101.226 192.463 100.649L190.268 92.9727H176.992L174.855 100.649C174.702 101.226 174.394 101.621 173.933 101.833C173.47 102.046 172.931 102.15 172.316 102.15ZM178.608 87.0833H188.653L183.629 69.3619L178.608 87.0833Z" fill="#2D3E98"/>
<path d="M209.17 102.15C208.207 102.15 207.329 101.948 206.542 101.545C205.753 101.14 205.36 100.533 205.36 99.726V62.3184C205.36 61.4728 205.753 60.8659 206.542 60.5012C207.329 60.1348 208.207 59.9524 209.17 59.9524C210.092 59.9524 210.937 60.1348 211.708 60.5012C212.479 60.866 212.864 61.4728 212.864 62.3184V99.726C212.864 100.533 212.479 101.14 211.708 101.545C210.937 101.948 210.092 102.15 209.17 102.15Z" fill="#2D3E98"/>
<path d="M223.137 102.15C222.33 102.15 221.579 101.948 220.886 101.545C220.194 101.14 219.848 100.533 219.848 99.726V62.3184C219.848 61.4728 220.242 60.8659 221.032 60.5012C221.819 60.1348 222.677 59.9524 223.6 59.9524C224.562 59.9524 225.427 60.1348 226.198 60.5012C226.968 60.866 227.352 61.4728 227.352 62.3184V95.5692H241.496C242.265 95.5692 242.822 95.9074 243.17 96.5806C243.515 97.2538 243.689 98.0132 243.689 98.8604C243.689 99.6679 243.515 100.419 243.17 101.112C242.822 101.803 242.265 102.15 241.496 102.15L223.137 102.15Z" fill="#2D3E98"/>
<path d="M31.4798 77.1406C29.4205 76.237 27.0445 75.7843 24.3501 75.7843C21.926 75.7843 19.6926 76.2171 17.6532 77.0826C15.6138 77.9481 13.9889 79.3541 12.7752 81.2974C11.5648 83.2406 10.958 85.8289 10.958 89.0604V102.302H18.5204V89.0604C18.5204 86.7905 19.0394 85.1076 20.079 84.0099C21.1186 82.9139 22.6192 82.3651 24.5806 82.3651C25.9667 82.3651 27.0544 82.5773 27.8437 83.0001C28.6313 83.4229 29.2182 83.9435 29.6046 84.5587C29.9876 85.1738 30.2479 85.7989 30.3839 86.434C30.5165 87.069 30.5862 87.6179 30.5862 88.0805C30.6227 88.9261 30.9974 89.533 31.7104 89.8977C32.4234 90.2641 33.2988 90.4465 34.3368 90.4465C35.6069 90.4465 36.5503 90.2061 37.1655 89.7252C37.7823 89.2444 38.0907 88.2528 38.0907 86.7523C38.0907 84.4824 37.5037 82.5375 36.3298 80.9209C35.1559 79.3059 33.5374 78.0459 31.4798 77.1406Z" fill="#2D3E98"/>
<path d="M46.2813 86.391C45.0693 88.3342 44.4641 90.9225 44.4641 94.154V102.15H52.0249V94.154C52.0249 91.846 52.5538 90.1531 53.6133 89.0754C54.6711 87.9977 56.1435 87.4588 58.0287 87.4588C59.9139 87.4588 61.3962 87.9977 62.474 89.0754C63.5518 90.1531 64.0906 91.846 64.0906 94.154V102.15H71.595V94.154C71.595 90.9224 70.9981 88.3342 69.806 86.391C68.6122 84.4478 66.9856 83.0417 64.928 82.1762C62.8687 81.3107 60.569 80.8779 58.0288 80.8779C55.4903 80.8779 53.1989 81.3107 51.1594 82.1762C49.1199 83.0417 47.495 84.4477 46.2813 86.391Z" fill="#2D3E98"/>
<path d="M63.4431 10.3464V16.2964C63.4431 18.6061 62.9042 20.3006 61.8265 21.3767C60.7488 22.4544 59.2665 22.9933 57.3812 22.9933C55.4959 22.9933 54.0236 22.4544 52.9658 21.3767C51.9063 20.3006 51.3774 18.6061 51.3774 16.2964V10.3464H43.8166V16.2964C43.8166 19.5296 44.4218 22.1179 45.6338 24.0611C46.8475 26.006 48.4724 27.4104 50.5118 28.2759C52.5512 29.1414 54.8427 29.5742 57.3812 29.5742C59.9214 29.5742 62.2211 29.1414 64.2804 28.2759C66.3381 27.4104 67.9646 26.006 69.1584 24.0611C70.3505 22.1179 70.9474 19.5296 70.9474 16.2964V10.3464H63.4431Z" fill="#2D3E98"/>
<path d="M29.9386 11.7234C29.859 12.3385 29.7546 12.9935 29.6203 13.6865C29.4843 14.3779 29.2356 15.0428 28.8709 15.6778C28.5028 16.3128 27.9358 16.8418 27.1664 17.2646C26.3971 17.6891 25.3575 17.8996 24.0492 17.8996C22.0479 17.8996 20.5175 17.3607 19.4597 16.283C18.4019 15.2069 17.8729 13.5124 17.8729 11.2027V10.4968H10.3105V11.2028C10.3105 14.436 10.9174 17.0243 12.1277 18.9675C13.3414 20.9124 14.9663 22.3168 17.0057 23.1823C19.0451 24.0478 21.2586 24.4806 23.6446 24.4806C26.339 24.4806 28.7249 24.0197 30.8041 23.0961C32.8817 22.1726 34.5082 20.8445 35.6821 19.1118C36.856 17.3808 37.443 15.3596 37.443 13.0516C37.443 11.8953 37.2424 11.0519 36.8569 10.4968H30.3391C30.1186 10.8215 29.98 11.2253 29.9386 11.7234Z" fill="#2D3E98"/>
</svg>
